<svg width="117" height="117" viewBox="0 0 117 117" fill="none" xmlns="http://www.w3.org/2000/svg">
<path d="M64.5938 95.8425C89.7138 95.8425 110.078 75.4787 110.078 50.3587C110.078 25.2388 89.7138 4.875 64.5938 4.875C39.4738 4.875 19.11 25.2388 19.11 50.3587C19.11 75.4787 39.4738 95.8425 64.5938 95.8425Z" fill="#FFE500"/>
<path d="M64.5937 4.87501C55.5979 4.87501 46.804 7.54258 39.3243 12.5404C31.8445 17.5382 26.0147 24.6418 22.5722 32.9529C19.1296 41.2639 18.2289 50.4092 19.9839 59.2322C21.7389 68.0552 26.0708 76.1596 32.4318 82.5206C38.7928 88.8816 46.8973 93.2135 55.7203 94.9686C64.5432 96.7235 73.6885 95.8228 81.9996 92.3803C90.3106 88.9377 97.4142 83.1079 102.412 75.6282C107.41 68.1484 110.077 59.3546 110.077 50.3588C110.081 44.3848 108.906 38.4689 106.622 32.9491C104.337 27.4293 100.987 22.4139 96.7627 18.1897C92.5385 13.9655 87.5232 10.6154 82.0034 8.33073C76.4836 6.04609 70.5676 4.8718 64.5937 4.87501ZM64.5937 89.0175C56.3981 89.0175 48.3866 86.5872 41.5723 82.034C34.7579 77.4808 29.4467 71.0092 26.3104 63.4374C23.1741 55.8657 22.3535 47.534 23.9524 39.496C25.5513 31.4579 29.4978 24.0744 35.293 18.2793C41.0881 12.4841 48.4715 8.53759 56.5096 6.93872C64.5477 5.33984 72.8794 6.16044 80.4511 9.29675C88.0229 12.4331 94.4945 17.7442 99.0477 24.5586C103.601 31.3729 106.031 39.3844 106.031 47.58C106.031 58.5699 101.665 69.1097 93.8944 76.8807C86.1234 84.6518 75.5836 89.0175 64.5937 89.0175Z" fill="#EBCB00"/>
<path d="M64.5938 17.3792C72.1325 17.3792 78.2438 15.8514 78.2438 13.9667C78.2438 12.082 72.1325 10.5542 64.5938 10.5542C57.0551 10.5542 50.9438 12.082 50.9438 13.9667C50.9438 15.8514 57.0551 17.3792 64.5938 17.3792Z" fill="#FFF48C"/>
<path d="M19.1588 96.0617C19.3927 95.0683 19.9003 94.1603 20.6241 93.4408C21.348 92.7213 22.259 92.219 23.2538 91.9911L31.4681 90.1873C31.6142 90.1496 31.7436 90.0646 31.8362 89.9455C31.9289 89.8264 31.9794 89.68 31.98 89.5292C31.9807 89.3752 31.931 89.2252 31.8386 89.102C31.7462 88.9788 31.6161 88.8892 31.4681 88.8467L23.2538 86.9698C22.2571 86.7373 21.3454 86.2305 20.6217 85.5069C19.898 84.7832 19.3913 83.8715 19.1588 82.8748L17.2575 74.6604C17.2179 74.5162 17.1321 74.3891 17.0132 74.2984C16.8943 74.2078 16.7489 74.1587 16.5994 74.1587C16.4499 74.1587 16.3045 74.2078 16.1856 74.2984C16.0667 74.3891 15.9809 74.5162 15.9413 74.6604L14.04 82.8748C13.8075 83.8715 13.3007 84.7832 12.5771 85.5069C11.8534 86.2305 10.9417 86.7373 9.945 86.9698L1.755 88.8467C1.60245 88.8846 1.46691 88.9723 1.36979 89.0959C1.27267 89.2195 1.21952 89.372 1.21875 89.5292C1.22068 89.6833 1.27473 89.8322 1.3721 89.9518C1.46947 90.0713 1.60443 90.1543 1.755 90.1873L9.945 92.0885C10.9423 92.3112 11.8561 92.8117 12.5808 93.532C13.3055 94.2524 13.8114 95.1633 14.04 96.1592L15.9413 104.374C15.9809 104.518 16.0667 104.645 16.1856 104.736C16.3045 104.826 16.4499 104.875 16.5994 104.875C16.7489 104.875 16.8943 104.826 17.0132 104.736C17.1321 104.645 17.2179 104.518 17.2575 104.374L19.1588 96.0617Z" fill="white" stroke="#45413C" stroke-linecap="round" stroke-linejoin="round"/>
<path d="M108.956 14.625L115.367 12.48C115.485 12.4402 115.588 12.365 115.662 12.2648C115.736 12.1645 115.778 12.044 115.781 11.9194C115.779 11.7914 115.739 11.6671 115.665 11.5627C115.591 11.4582 115.487 11.3787 115.367 11.3344L110.077 9.75C109.725 9.62696 109.405 9.42449 109.143 9.15823C108.881 8.89196 108.684 8.56903 108.566 8.21437L106.811 2.94938C106.784 2.81121 106.712 2.6859 106.606 2.59322C106.5 2.50053 106.367 2.44575 106.226 2.4375C106.102 2.44093 105.981 2.4825 105.881 2.5566C105.781 2.6307 105.705 2.73375 105.666 2.85187L103.911 8.11687C103.804 8.4921 103.609 8.83626 103.342 9.12044C103.074 9.40462 102.743 9.62052 102.375 9.75L97.0856 11.505C96.9655 11.5493 96.8617 11.6289 96.7877 11.7333C96.7138 11.8377 96.6731 11.9621 96.6712 12.09C96.6746 12.2146 96.7162 12.3352 96.7903 12.4354C96.8644 12.5357 96.9675 12.6108 97.0856 12.6506L102.375 14.3081C102.732 14.428 103.057 14.629 103.323 14.8955C103.59 15.1619 103.791 15.4865 103.911 15.8438L105.666 21.1331C105.705 21.2512 105.781 21.3543 105.881 21.4284C105.981 21.5025 106.102 21.5441 106.226 21.5475C106.354 21.5456 106.479 21.5049 106.583 21.431C106.687 21.357 106.767 21.2532 106.811 21.1331L108.956 14.625Z" fill="white" stroke="#45413C" stroke-linecap="round" stroke-linejoin="round"/>
<path d="M64.5938 95.8425C89.7138 95.8425 110.078 75.4787 110.078 50.3587C110.078 25.2388 89.7138 4.875 64.5938 4.875C39.4738 4.875 19.11 25.2388 19.11 50.3587C19.11 75.4787 39.4738 95.8425 64.5938 95.8425Z" stroke="#45413C" stroke-width="2" stroke-linecap="round" stroke-linejoin="round"/>
<path d="M75.9769 68.5183C72.6084 70.7601 68.6523 71.9562 64.606 71.9562C60.5596 71.9562 56.6036 70.7601 53.235 68.5183" stroke="#45413C" stroke-miterlimit="10" stroke-linecap="round"/>
<path d="M97.5 61.7174C97.5 63.6187 94.9406 65.1299 91.8206 65.1299C88.7006 65.1299 86.1169 63.6187 86.1169 61.7174C86.1169 59.8162 88.5544 58.3049 91.8206 58.3049C95.0869 58.3049 97.5 59.8406 97.5 61.7174Z" fill="#FFAA54"/>
<path d="M31.6875 61.7174C31.6875 63.6187 34.125 65.1299 37.3669 65.1299C40.6087 65.1299 43.0706 63.6187 43.0706 61.7174C43.0706 59.8162 40.5112 58.3049 37.3669 58.3049C34.2225 58.3049 31.6875 59.8406 31.6875 61.7174Z" fill="#FFAA54"/>
<path d="M97.1831 58.3047H83.9475C80.8362 58.3119 77.8236 57.2127 75.4481 55.2033C73.0726 53.194 71.4889 50.4054 70.98 47.336L69.1519 36.3916C68.997 35.4574 69.0462 34.5008 69.2963 33.5874C69.5463 32.6741 69.9912 31.8258 70.6004 31.1008C71.2096 30.3758 71.9686 29.7913 72.8252 29.3877C73.6817 28.984 74.6156 28.7706 75.5625 28.7622H104.813C105.739 28.7595 106.655 28.9531 107.502 29.3304C108.348 29.7076 109.104 30.2599 109.722 30.9508C110.339 31.6417 110.803 32.4556 111.083 33.3388C111.362 34.222 111.452 35.1544 111.345 36.0747L110.175 46.6535C109.806 49.8471 108.281 52.7952 105.887 54.9416C103.494 57.088 100.398 58.2843 97.1831 58.3047Z" fill="#656769"/>
<path d="M70.98 47.336C71.2808 49.1041 71.9425 50.7914 72.9238 52.2926C73.9051 53.7939 75.185 55.0771 76.6837 56.0622L104.008 28.7622H75.5625C74.6094 28.76 73.6673 28.9656 72.8018 29.3647C71.9363 29.7638 71.1682 30.3467 70.551 31.073C69.9338 31.7992 69.4823 32.6513 69.228 33.5699C68.9738 34.4884 68.9228 35.4513 69.0787 36.3916L70.98 47.336Z" fill="#87898C"/>
<path d="M97.1831 58.3047H83.9475C80.8362 58.3119 77.8236 57.2127 75.4481 55.2033C73.0726 53.1939 71.4889 50.4054 70.98 47.336L69.1519 36.3916C68.997 35.4574 69.0462 34.5008 69.2963 33.5874C69.5463 32.6741 69.9912 31.8258 70.6004 31.1008C71.2096 30.3758 71.9686 29.7913 72.8252 29.3877C73.6817 28.984 74.6156 28.7706 75.5625 28.7622H104.813C105.739 28.7595 106.655 28.9531 107.502 29.3304C108.348 29.7076 109.104 30.2599 109.722 30.9508C110.339 31.6417 110.803 32.4556 111.083 33.3388C111.362 34.222 111.452 35.1544 111.345 36.0747L110.175 46.6535C109.806 49.8471 108.281 52.7952 105.887 54.9416C103.494 57.088 100.398 58.2843 97.1831 58.3047V58.3047Z" stroke="#45413C" stroke-linecap="round" stroke-linejoin="round"/>
<path d="M32.0044 58.304H45.24C48.3514 58.3112 51.3639 57.2119 53.7394 55.2025C56.1149 53.1932 57.6986 50.4047 58.2075 47.3352L60.0356 36.3908C60.1906 35.4567 60.1413 34.5 59.8912 33.5867C59.6412 32.6733 59.1963 31.825 58.5871 31.1C57.9779 30.375 57.2189 29.7906 56.3624 29.3869C55.5058 28.9832 54.5719 28.7698 53.625 28.7615H24.375C23.4497 28.7626 22.5351 28.9588 21.6907 29.3373C20.8464 29.7159 20.0914 30.2682 19.475 30.9582C18.8585 31.6482 18.3945 32.4605 18.1132 33.342C17.8319 34.2235 17.7397 35.1544 17.8425 36.074L19.0369 46.6527C19.3952 49.8463 20.9138 52.7972 23.3043 54.945C25.6948 57.0929 28.7908 58.2882 32.0044 58.304Z" fill="#656769"/>
<path d="M18.9394 46.6289C19.1853 48.7597 19.9493 50.7979 21.1645 52.5655C22.3797 54.3331 24.0092 55.7762 25.9106 56.7689L53.8931 28.7864H24.375C23.4497 28.7875 22.5351 28.9837 21.6907 29.3622C20.8464 29.7408 20.0914 30.2931 19.475 30.9831C18.8585 31.6731 18.3945 32.4854 18.1132 33.3669C17.8319 34.2484 17.7397 35.1793 17.8425 36.0989L18.9394 46.6289Z" fill="#87898C"/>
<path d="M32.0044 58.304H45.24C48.3514 58.3112 51.3639 57.2119 53.7394 55.2025C56.1149 53.1932 57.6986 50.4047 58.2075 47.3352L60.0356 36.3908C60.1906 35.4567 60.1413 34.5 59.8912 33.5867C59.6412 32.6733 59.1963 31.825 58.5871 31.1C57.9779 30.375 57.2189 29.7906 56.3624 29.3869C55.5058 28.9832 54.5719 28.7698 53.625 28.7615H24.375C23.4497 28.7626 22.5351 28.9588 21.6907 29.3373C20.8464 29.7159 20.0914 30.2682 19.475 30.9582C18.8585 31.6482 18.3945 32.4605 18.1132 33.342C17.8319 34.2235 17.7397 35.1544 17.8425 36.074L19.0369 46.6527C19.3952 49.8463 20.9138 52.7972 23.3043 54.945C25.6948 57.0929 28.7908 58.2882 32.0044 58.304V58.304Z" stroke="#45413C" stroke-linecap="round" stroke-linejoin="round"/>
<path d="M71.37 30.3712C69.268 29.3124 66.9472 28.761 64.5937 28.761C62.2402 28.761 59.9194 29.3124 57.8174 30.3712" stroke="#45413C" stroke-linecap="round" stroke-linejoin="round"/>
</svg>
