<svg width="117" height="117" viewBox="0 0 117 117" fill="none" xmlns="http://www.w3.org/2000/svg">
<path d="M58.5 102.375C85.4239 102.375 107.25 80.5489 107.25 53.625C107.25 26.7011 85.4239 4.875 58.5 4.875C31.5761 4.875 9.75 26.7011 9.75 53.625C9.75 80.5489 31.5761 102.375 58.5 102.375Z" fill="#FFE500"/>
<path d="M58.5 3.65625C48.8582 3.65625 39.4328 6.51539 31.4159 11.8721C23.3991 17.2288 17.1506 24.8425 13.4609 33.7504C9.7711 42.6583 8.80569 52.4603 10.6867 61.9169C12.5677 71.3735 17.2107 80.0599 24.0285 86.8777C30.8464 93.6955 39.5328 98.3385 48.9893 100.22C58.4459 102.101 68.2479 101.135 77.1558 97.4454C86.0637 93.7556 93.6774 87.5072 99.0341 79.4903C104.391 71.4734 107.25 62.0481 107.25 52.4062C107.25 39.4769 102.114 27.0772 92.9715 17.9348C83.8291 8.7924 71.4293 3.65625 58.5 3.65625ZM58.5 93.8437C49.7018 93.8437 41.1012 91.2348 33.7858 86.3468C26.4704 81.4588 20.7687 74.5113 17.4018 66.3828C14.0349 58.2543 13.1539 49.31 14.8704 40.6809C16.5868 32.0518 20.8235 24.1254 27.0448 17.9042C33.266 11.6829 41.1924 7.44619 49.8215 5.72975C58.4507 4.01332 67.395 4.89425 75.5234 8.26117C83.6519 11.6281 90.5994 17.3298 95.4874 24.6452C100.375 31.9606 102.984 40.5612 102.984 49.3594C102.984 61.1574 98.2976 72.4721 89.9552 80.8146C81.6128 89.157 70.298 93.8437 58.5 93.8437Z" fill="#EBCB00"/>
<path d="M58.5 17.0625C66.5772 17.0625 73.125 15.4255 73.125 13.4062C73.125 11.387 66.5772 9.75 58.5 9.75C50.4228 9.75 43.875 11.387 43.875 13.4062C43.875 15.4255 50.4228 17.0625 58.5 17.0625Z" fill="#FFF48C"/>
<path d="M58.5 101.156C85.4239 101.156 107.25 79.3301 107.25 52.4062C107.25 25.4824 85.4239 3.65625 58.5 3.65625C31.5761 3.65625 9.74998 25.4824 9.74998 52.4062C9.74998 79.3301 31.5761 101.156 58.5 101.156Z" stroke="#45413C" stroke-width="2" stroke-linecap="round" stroke-linejoin="round"/>
<path d="M93.8438 64.5938C93.8438 66.6169 91.1138 68.25 87.75 68.25C84.3863 68.25 81.6562 66.6169 81.6562 64.5938C81.6562 62.5706 84.3863 60.9375 87.75 60.9375C91.1138 60.9375 93.8438 62.5706 93.8438 64.5938Z" fill="#FFAA54"/>
<path d="M23.1562 64.5938C23.1562 66.6169 25.8863 68.25 29.25 68.25C32.6138 68.25 35.3438 66.6169 35.3438 64.5938C35.3438 62.5706 32.6138 60.9375 29.25 60.9375C25.8863 60.9375 23.1562 62.5706 23.1562 64.5938Z" fill="#FFAA54"/>
<path d="M76.6837 71.6624C75.7312 73.693 74.3877 75.5158 72.73 77.0267C71.0723 78.5376 69.133 79.7068 67.0231 80.4675C64.9131 81.2281 62.6738 81.5653 60.4334 81.4598C58.193 81.3543 55.9954 80.808 53.9662 79.8523" stroke="#45413C" stroke-linecap="round" stroke-linejoin="round"/>
<path d="M38.3906 53.7956C38.4259 54.161 38.3844 54.5296 38.2688 54.878C38.1531 55.2263 37.9659 55.5467 37.7192 55.8184C37.4724 56.0901 37.1716 56.3072 36.836 56.4558C36.5003 56.6044 36.1374 56.6811 35.7703 56.6811C35.4033 56.6811 35.0403 56.6044 34.7047 56.4558C34.369 56.3072 34.0682 56.0901 33.8214 55.8184C33.5747 55.5467 33.3875 55.2263 33.2719 54.878C33.1562 54.5296 33.1147 54.161 33.15 53.7956C33.15 52.5281 26.2031 51.1875 26.2031 51.1875H35.7825C36.4742 51.1875 37.1376 51.4623 37.6267 51.9514C38.1158 52.4405 38.3906 53.1039 38.3906 53.7956Z" fill="#45413C" stroke="#45413C" stroke-linecap="round" stroke-linejoin="round"/>
<path d="M89.5781 53.7956C89.6134 54.161 89.5719 54.5296 89.4563 54.878C89.3406 55.2263 89.1534 55.5467 88.9067 55.8184C88.6599 56.0901 88.3591 56.3072 88.0235 56.4558C87.6878 56.6044 87.3249 56.6811 86.9578 56.6811C86.5908 56.6811 86.2278 56.6044 85.8922 56.4558C85.5565 56.3072 85.2557 56.0901 85.0089 55.8184C84.7622 55.5467 84.575 55.2263 84.4594 54.878C84.3437 54.5296 84.3022 54.161 84.3375 53.7956C84.3375 52.5281 77.3906 51.1875 77.3906 51.1875H86.97C87.6617 51.1875 88.3251 51.4623 88.8142 51.9514C89.3033 52.4405 89.5781 53.1039 89.5781 53.7956Z" fill="#45413C" stroke="#45413C" stroke-linecap="round" stroke-linejoin="round"/>
<path d="M97.2806 47.3363C96.3282 45.3026 94.9837 43.477 93.3242 41.964C91.6647 40.4511 89.7228 39.2806 87.61 38.5198C85.4972 37.7589 83.255 37.4226 81.0119 37.5301C78.7689 37.6376 76.5691 38.1868 74.5388 39.1463" stroke="#45413C" stroke-linecap="round" stroke-linejoin="round"/>
<path d="M19.7194 47.3363C20.6718 45.3026 22.0163 43.477 23.6758 41.964C25.3353 40.4511 27.2772 39.2806 29.39 38.5198C31.5028 37.7589 33.745 37.4226 35.9881 37.5301C38.2311 37.6376 40.4309 38.1868 42.4613 39.1463" stroke="#45413C" stroke-linecap="round" stroke-linejoin="round"/>
</svg>
