<svg width="117" height="117" viewBox="0 0 117 117" fill="none" xmlns="http://www.w3.org/2000/svg">
<path d="M58.5 101.156C85.4239 101.156 107.25 79.3301 107.25 52.4062C107.25 25.4824 85.4239 3.65625 58.5 3.65625C31.5761 3.65625 9.75 25.4824 9.75 52.4062C9.75 79.3301 31.5761 101.156 58.5 101.156Z" fill="#FFE500"/>
<path d="M58.5 3.65625C48.8582 3.65625 39.4329 6.51539 31.416 11.8721C23.3991 17.2288 17.1507 24.8425 13.4609 33.7504C9.77112 42.6583 8.80571 52.4603 10.6867 61.9169C12.5678 71.3735 17.2108 80.0599 24.0286 86.8777C30.8464 93.6955 39.5328 98.3385 48.9894 100.22C58.4459 102.101 68.2479 101.135 77.1558 97.4454C86.0637 93.7556 93.6774 87.5072 99.0342 79.4903C104.391 71.4734 107.25 62.0481 107.25 52.4062C107.25 39.4769 102.114 27.0772 92.9715 17.9348C83.8291 8.7924 71.4293 3.65625 58.5 3.65625ZM58.5 93.8437C49.7018 93.8437 41.1012 91.2348 33.7858 86.3468C26.4704 81.4588 20.7687 74.5113 17.4018 66.3828C14.0349 58.2543 13.154 49.31 14.8704 40.6809C16.5868 32.0518 20.8236 24.1254 27.0448 17.9042C33.2661 11.6829 41.1924 7.44619 49.8216 5.72975C58.4507 4.01332 67.395 4.89425 75.5235 8.26117C83.6519 11.6281 90.5994 17.3298 95.4874 24.6452C100.375 31.9606 102.984 40.5612 102.984 49.3594C102.984 61.1574 98.2977 72.4721 89.9552 80.8146C81.6128 89.157 70.298 93.8437 58.5 93.8437Z" fill="#EBCB00"/>
<path d="M58.5 17.0625C66.5772 17.0625 73.125 15.4255 73.125 13.4062C73.125 11.387 66.5772 9.75 58.5 9.75C50.4228 9.75 43.875 11.387 43.875 13.4062C43.875 15.4255 50.4228 17.0625 58.5 17.0625Z" fill="#FFF48C"/>
<path d="M58.5 101.156C85.4239 101.156 107.25 79.3301 107.25 52.4062C107.25 25.4824 85.4239 3.65625 58.5 3.65625C31.5761 3.65625 9.75 25.4824 9.75 52.4062C9.75 79.3301 31.5761 101.156 58.5 101.156Z" stroke="#45413C" stroke-width="2" stroke-linecap="round" stroke-linejoin="round"/>
<path d="M93.8438 64.5938C93.8438 66.6169 91.1138 68.25 87.75 68.25C84.3863 68.25 81.6562 66.6169 81.6562 64.5938C81.6562 62.5706 84.3863 60.9375 87.75 60.9375C91.1138 60.9375 93.8438 62.5706 93.8438 64.5938Z" fill="#FFAA54"/>
<path d="M23.1562 64.5938C23.1562 66.6169 25.8863 68.25 29.25 68.25C32.6138 68.25 35.3438 66.6169 35.3438 64.5938C35.3438 62.5706 32.6138 60.9375 29.25 60.9375C25.8863 60.9375 23.1562 62.5706 23.1562 64.5938Z" fill="#FFAA54"/>
<path d="M43.7287 71.9062C43.3994 71.9081 43.0744 71.9809 42.7757 72.1197C42.4771 72.2585 42.2118 72.46 41.9981 72.7106C41.7874 72.9667 41.6312 73.2631 41.539 73.5816C41.4468 73.9001 41.4205 74.2341 41.4619 74.5631C42.1143 78.6186 44.1899 82.3092 47.3166 84.9731C50.4434 87.637 54.4167 89.1001 58.5244 89.1001C62.632 89.1001 66.6054 87.637 69.7321 84.9731C72.8588 82.3092 74.9345 78.6186 75.5869 74.5631C75.6282 74.2341 75.602 73.9001 75.5098 73.5816C75.4175 73.2631 75.2613 72.9667 75.0506 72.7106C74.8369 72.46 74.5717 72.2585 74.273 72.1197C73.9744 71.9809 73.6493 71.9081 73.32 71.9062H43.7287Z" fill="#FFB0CA" stroke="#45413C" stroke-linecap="round" stroke-linejoin="round"/>
<path d="M72.0768 82.485C67.8974 80.2806 63.2238 79.1815 58.5 79.2919C53.7761 79.1815 49.1025 80.2806 44.9231 82.485C46.559 84.5104 48.6274 86.1441 50.9766 87.2664C53.3258 88.3888 55.8964 88.9713 58.5 88.9713C61.1035 88.9713 63.6741 88.3888 66.0233 87.2664C68.3725 86.1441 70.4409 84.5104 72.0768 82.485Z" fill="#FF87AF" stroke="#45413C" stroke-linecap="round" stroke-linejoin="round"/>
<path d="M88.3838 43.875L80.5594 47.7994C80.1602 48.0039 79.8251 48.3147 79.5911 48.6975C79.3571 49.0802 79.2333 49.5201 79.2333 49.9688C79.2333 50.4174 79.3571 50.8573 79.5911 51.24C79.8251 51.6228 80.1602 51.9336 80.5594 52.1381L88.3838 56.0625" stroke="#45413C" stroke-linecap="round" stroke-linejoin="round"/>
<path d="M28.6163 43.875L36.5625 47.7994C36.9618 48.0039 37.2969 48.3147 37.5308 48.6975C37.7648 49.0802 37.8886 49.5201 37.8886 49.9688C37.8886 50.4174 37.7648 50.8573 37.5308 51.24C37.2969 51.6228 36.9618 51.9336 36.5625 52.1381L28.6163 56.0625" stroke="#45413C" stroke-linecap="round" stroke-linejoin="round"/>
</svg>
