<svg width="41" height="41" viewBox="0 0 41 41" fill="none" xmlns="http://www.w3.org/2000/svg">
<path d="M20.8703 38.8421C31.6688 38.8421 38.8419 31.4123 38.8419 20.9255C38.8419 19.7247 38.7147 18.7979 38.5375 17.8734H20.8728V24.1782H31.4941C31.06 26.8562 28.278 32.0849 20.8728 32.0849C14.4931 32.0849 9.28348 26.9051 9.28348 20.5C9.28348 14.0949 14.4906 8.91268 20.8728 8.91268C24.523 8.91268 26.9482 10.4387 28.3279 11.7398L33.4078 6.96108C30.1368 3.96032 25.9252 2.1579 20.8703 2.1579C10.531 2.1579 2.15771 10.3654 2.15771 20.5C2.15771 30.6346 10.531 38.8421 20.8703 38.8421V38.8421Z" fill="#797B80"/>
</svg>
