<svg width="347" height="354" viewBox="0 0 347 354" fill="none" xmlns="http://www.w3.org/2000/svg">
<path d="M347 177C347 270.888 270.888 347 177 347C83.1116 347 7 270.888 7 177C7 83.1116 83.1116 7 177 7C270.888 7 347 83.1116 347 177ZM92 177C92 223.944 130.056 262 177 262C223.944 262 262 223.944 262 177C262 130.056 223.944 92 177 92C130.056 92 92 130.056 92 177Z" fill="#C4C4C4"/>
<mask id="path-2-outside-1" maskUnits="userSpaceOnUse" x="0" y="0" width="245" height="354" fill="black">
<rect fill="white" width="245" height="354"/>
<path d="M177 7C152.168 7 127.637 12.4401 105.133 22.9377C82.6295 33.4353 62.6985 48.7355 46.7421 67.7623C30.7856 86.7892 19.1913 109.081 12.7743 133.069C6.35728 157.058 5.27349 182.161 9.59913 206.613C13.9248 231.066 23.5548 254.274 37.812 274.605C52.0692 294.936 70.6074 311.897 92.1229 324.295C113.638 336.693 137.609 344.227 162.348 346.367C187.088 348.508 211.996 345.202 235.321 336.683L206.161 256.841C194.498 261.101 182.044 262.754 169.674 261.684C157.304 260.614 145.319 256.847 134.561 250.648C123.804 244.449 114.535 235.968 107.406 225.802C100.277 215.637 95.4624 204.033 93.2996 191.807C91.1367 179.58 91.6786 167.029 94.8871 155.035C98.0956 143.04 103.893 131.895 111.871 122.381C119.849 112.868 129.815 105.218 141.067 99.9688C152.319 94.72 164.584 92 177 92V7Z"/>
</mask>
<path d="M177 7C152.168 7 127.637 12.4401 105.133 22.9377C82.6295 33.4353 62.6985 48.7355 46.7421 67.7623C30.7856 86.7892 19.1913 109.081 12.7743 133.069C6.35728 157.058 5.27349 182.161 9.59913 206.613C13.9248 231.066 23.5548 254.274 37.812 274.605C52.0692 294.936 70.6074 311.897 92.1229 324.295C113.638 336.693 137.609 344.227 162.348 346.367C187.088 348.508 211.996 345.202 235.321 336.683L206.161 256.841C194.498 261.101 182.044 262.754 169.674 261.684C157.304 260.614 145.319 256.847 134.561 250.648C123.804 244.449 114.535 235.968 107.406 225.802C100.277 215.637 95.4624 204.033 93.2996 191.807C91.1367 179.58 91.6786 167.029 94.8871 155.035C98.0956 143.04 103.893 131.895 111.871 122.381C119.849 112.868 129.815 105.218 141.067 99.9688C152.319 94.72 164.584 92 177 92V7Z" fill="#FF323B"/>
<path d="M177 7C152.168 7 127.637 12.4401 105.133 22.9377C82.6295 33.4353 62.6985 48.7355 46.7421 67.7623C30.7856 86.7892 19.1913 109.081 12.7743 133.069C6.35728 157.058 5.27349 182.161 9.59913 206.613C13.9248 231.066 23.5548 254.274 37.812 274.605C52.0692 294.936 70.6074 311.897 92.1229 324.295C113.638 336.693 137.609 344.227 162.348 346.367C187.088 348.508 211.996 345.202 235.321 336.683L206.161 256.841C194.498 261.101 182.044 262.754 169.674 261.684C157.304 260.614 145.319 256.847 134.561 250.648C123.804 244.449 114.535 235.968 107.406 225.802C100.277 215.637 95.4624 204.033 93.2996 191.807C91.1367 179.58 91.6786 167.029 94.8871 155.035C98.0956 143.04 103.893 131.895 111.871 122.381C119.849 112.868 129.815 105.218 141.067 99.9688C152.319 94.72 164.584 92 177 92V7Z" stroke="white" stroke-width="14" mask="url(#path-2-outside-1)"/>
</svg>
