<svg width="277" height="277" viewBox="0 0 277 277" fill="none" xmlns="http://www.w3.org/2000/svg">
<path d="M96.296 134.76C100.472 135.624 103.664 137.352 105.872 139.944C108.128 142.488 109.256 145.584 109.256 149.232C109.256 152.208 108.44 154.968 106.808 157.512C105.224 160.056 102.776 162.12 99.464 163.704C96.2 165.24 92.144 166.008 87.296 166.008C83.744 166.008 80.216 165.576 76.712 164.712C73.256 163.848 70.256 162.624 67.712 161.04L72.896 150.312C74.864 151.656 77.072 152.688 79.52 153.408C82.016 154.128 84.464 154.488 86.864 154.488C89.312 154.488 91.256 154.032 92.696 153.12C94.136 152.208 94.856 150.912 94.856 149.232C94.856 145.968 92.288 144.336 87.152 144.336H81.176V135.336L90.176 125.616H70.304V114.6H106.736V123.528L96.296 134.76ZM131.992 132.96C139.048 132.96 144.256 134.4 147.616 137.28C151.024 140.16 152.728 144 152.728 148.8C152.728 151.92 151.912 154.8 150.28 157.44C148.696 160.032 146.248 162.12 142.936 163.704C139.672 165.24 135.616 166.008 130.768 166.008C127.216 166.008 123.688 165.576 120.184 164.712C116.728 163.848 113.752 162.624 111.256 161.04L116.368 150.312C118.384 151.656 120.592 152.688 122.992 153.408C125.44 154.128 127.888 154.488 130.336 154.488C132.784 154.488 134.728 154.032 136.168 153.12C137.656 152.16 138.4 150.84 138.4 149.16C138.4 147.48 137.68 146.208 136.24 145.344C134.8 144.48 132.256 144.048 128.608 144.048H114.928L117.448 114.6H149.56V125.616H129.256L128.608 132.96H131.992ZM168.183 141.888C164.391 141.888 161.295 140.64 158.895 138.144C156.495 135.648 155.295 132.24 155.295 127.92C155.295 125.088 155.847 122.616 156.951 120.504C158.055 118.392 159.567 116.784 161.487 115.68C163.455 114.528 165.687 113.952 168.183 113.952C172.023 113.952 175.143 115.224 177.543 117.768C179.943 120.264 181.143 123.648 181.143 127.92C181.143 132.24 179.943 135.648 177.543 138.144C175.143 140.64 172.023 141.888 168.183 141.888ZM197.991 114.6H208.359L173.943 165H163.575L197.991 114.6ZM168.183 135.048C169.479 135.048 170.511 134.472 171.279 133.32C172.047 132.168 172.431 130.368 172.431 127.92C172.431 125.472 172.047 123.672 171.279 122.52C170.511 121.368 169.479 120.792 168.183 120.792C166.935 120.792 165.903 121.392 165.087 122.592C164.319 123.744 163.935 125.52 163.935 127.92C163.935 130.32 164.319 132.12 165.087 133.32C165.903 134.472 166.935 135.048 168.183 135.048ZM203.751 165.648C199.911 165.648 196.791 164.4 194.391 161.904C192.039 159.408 190.863 156 190.863 151.68C190.863 147.408 192.063 144.024 194.463 141.528C196.863 138.984 199.959 137.712 203.751 137.712C207.591 137.712 210.711 138.984 213.111 141.528C215.511 144.024 216.711 147.408 216.711 151.68C216.711 156 215.511 159.408 213.111 161.904C210.711 164.4 207.591 165.648 203.751 165.648ZM203.751 158.808C205.047 158.808 206.079 158.232 206.847 157.08C207.615 155.928 207.999 154.128 207.999 151.68C207.999 149.232 207.615 147.432 206.847 146.28C206.079 145.128 205.047 144.552 203.751 144.552C202.455 144.552 201.423 145.128 200.655 146.28C199.887 147.432 199.503 149.232 199.503 151.68C199.503 154.128 199.887 155.928 200.655 157.08C201.423 158.232 202.455 158.808 203.751 158.808Z" fill="black"/>
<path d="M277 138.5C277 214.991 214.991 277 138.5 277C62.0086 277 0 214.991 0 138.5C0 62.0086 62.0086 0 138.5 0C214.991 0 277 62.0086 277 138.5ZM13.85 138.5C13.85 207.342 69.6577 263.15 138.5 263.15C207.342 263.15 263.15 207.342 263.15 138.5C263.15 69.6577 207.342 13.85 138.5 13.85C69.6577 13.85 13.85 69.6577 13.85 138.5Z" fill="#797B80"/>
<path d="M138.5 6.925C138.5 3.10043 141.603 -0.0180596 145.423 0.173051C172.741 1.53985 199.102 10.9718 221.136 27.3536C245.026 45.1155 262.557 70.102 271.131 98.6098C279.705 127.118 278.866 157.629 268.737 185.623C259.396 211.441 242.611 233.849 220.578 250.059C217.498 252.325 213.189 251.436 211.08 248.246C208.97 245.056 209.859 240.775 212.927 238.491C232.483 223.936 247.385 203.929 255.713 180.91C264.829 155.716 265.585 128.256 257.868 102.599C250.151 76.9418 234.373 54.4539 212.873 38.4683C193.228 23.8629 169.762 15.3956 145.422 14.0423C141.603 13.8299 138.5 10.7496 138.5 6.925Z" fill="#FF323B"/>
</svg>
