<svg width="277" height="277" viewBox="0 0 277 277" fill="none" xmlns="http://www.w3.org/2000/svg">
<path d="M86.224 132.888C89.392 132.888 92.296 133.56 94.936 134.904C97.576 136.2 99.664 138.072 101.2 140.52C102.784 142.92 103.576 145.68 103.576 148.8C103.576 152.208 102.688 155.232 100.912 157.872C99.184 160.464 96.808 162.48 93.784 163.92C90.808 165.312 87.472 166.008 83.776 166.008C76.576 166.008 70.888 163.872 66.712 159.6C62.536 155.328 60.448 149.184 60.448 141.168C60.448 135.408 61.552 130.464 63.76 126.336C66.016 122.16 69.16 118.992 73.192 116.832C77.224 114.672 81.904 113.592 87.232 113.592C90.112 113.592 92.848 113.904 95.44 114.528C98.032 115.152 100.24 116.064 102.064 117.264L96.88 127.488C94.432 125.76 91.336 124.896 87.592 124.896C83.944 124.896 80.992 125.904 78.736 127.92C76.48 129.936 75.184 132.84 74.848 136.632C77.728 134.136 81.52 132.888 86.224 132.888ZM82.912 155.856C84.928 155.856 86.56 155.28 87.808 154.128C89.104 152.976 89.752 151.416 89.752 149.448C89.752 147.528 89.104 145.992 87.808 144.84C86.56 143.688 84.904 143.112 82.84 143.112C80.776 143.112 79.096 143.712 77.8 144.912C76.504 146.064 75.856 147.6 75.856 149.52C75.856 151.392 76.48 152.928 77.728 154.128C79.024 155.28 80.752 155.856 82.912 155.856ZM126.07 132.96C133.126 132.96 138.334 134.4 141.694 137.28C145.102 140.16 146.806 144 146.806 148.8C146.806 151.92 145.99 154.8 144.358 157.44C142.774 160.032 140.326 162.12 137.014 163.704C133.75 165.24 129.694 166.008 124.846 166.008C121.294 166.008 117.766 165.576 114.262 164.712C110.806 163.848 107.83 162.624 105.334 161.04L110.446 150.312C112.462 151.656 114.67 152.688 117.07 153.408C119.518 154.128 121.966 154.488 124.414 154.488C126.862 154.488 128.806 154.032 130.246 153.12C131.734 152.16 132.478 150.84 132.478 149.16C132.478 147.48 131.758 146.208 130.318 145.344C128.878 144.48 126.334 144.048 122.686 144.048H109.006L111.526 114.6H143.638V125.616H123.334L122.686 132.96H126.07ZM162.261 141.888C158.469 141.888 155.373 140.64 152.973 138.144C150.573 135.648 149.373 132.24 149.373 127.92C149.373 125.088 149.925 122.616 151.029 120.504C152.133 118.392 153.645 116.784 155.565 115.68C157.533 114.528 159.765 113.952 162.261 113.952C166.101 113.952 169.221 115.224 171.621 117.768C174.021 120.264 175.221 123.648 175.221 127.92C175.221 132.24 174.021 135.648 171.621 138.144C169.221 140.64 166.101 141.888 162.261 141.888ZM192.069 114.6H202.437L168.021 165H157.653L192.069 114.6ZM162.261 135.048C163.557 135.048 164.589 134.472 165.357 133.32C166.125 132.168 166.509 130.368 166.509 127.92C166.509 125.472 166.125 123.672 165.357 122.52C164.589 121.368 163.557 120.792 162.261 120.792C161.013 120.792 159.981 121.392 159.165 122.592C158.397 123.744 158.013 125.52 158.013 127.92C158.013 130.32 158.397 132.12 159.165 133.32C159.981 134.472 161.013 135.048 162.261 135.048ZM197.829 165.648C193.989 165.648 190.869 164.4 188.469 161.904C186.117 159.408 184.941 156 184.941 151.68C184.941 147.408 186.141 144.024 188.541 141.528C190.941 138.984 194.037 137.712 197.829 137.712C201.669 137.712 204.789 138.984 207.189 141.528C209.589 144.024 210.789 147.408 210.789 151.68C210.789 156 209.589 159.408 207.189 161.904C204.789 164.4 201.669 165.648 197.829 165.648ZM197.829 158.808C199.125 158.808 200.157 158.232 200.925 157.08C201.693 155.928 202.077 154.128 202.077 151.68C202.077 149.232 201.693 147.432 200.925 146.28C200.157 145.128 199.125 144.552 197.829 144.552C196.533 144.552 195.501 145.128 194.733 146.28C193.965 147.432 193.581 149.232 193.581 151.68C193.581 154.128 193.965 155.928 194.733 157.08C195.501 158.232 196.533 158.808 197.829 158.808Z" fill="black"/>
<path d="M277 138.5C277 214.991 214.991 277 138.5 277C62.0086 277 0 214.991 0 138.5C0 62.0086 62.0086 0 138.5 0C214.991 0 277 62.0086 277 138.5ZM13.85 138.5C13.85 207.342 69.6577 263.15 138.5 263.15C207.342 263.15 263.15 207.342 263.15 138.5C263.15 69.6577 207.342 13.85 138.5 13.85C69.6577 13.85 13.85 69.6577 13.85 138.5Z" fill="#797B80"/>
<path d="M138.5 6.925C138.5 3.10043 141.603 -0.0180619 145.422 0.173064C169.799 1.39277 193.466 9.03687 213.997 22.3859C236.466 36.9955 254.214 57.8108 265.088 82.3072C275.962 106.804 279.495 133.929 275.259 160.394C271.022 186.858 259.198 211.525 241.22 231.402C223.242 251.28 199.883 265.515 173.976 272.38C148.068 279.245 120.726 278.445 95.2635 270.078C69.8014 261.712 47.3139 246.137 30.5281 225.243C15.1905 206.152 5.21532 183.369 1.56117 159.237C0.988569 155.455 3.78075 152.056 7.58611 151.673C11.3915 151.29 14.767 154.069 15.3606 157.847C18.733 179.313 27.6665 199.567 41.3253 216.568C56.4325 235.373 76.6713 249.39 99.5872 256.921C122.503 264.451 147.111 265.17 170.428 258.992C193.745 252.813 214.768 240.002 230.948 222.112C247.128 204.222 257.77 182.022 261.583 158.204C265.396 134.386 262.216 109.973 252.43 87.9265C242.643 65.8797 226.67 47.146 206.447 33.9973C188.164 22.1094 167.117 15.2486 145.422 14.0423C141.603 13.8299 138.5 10.7496 138.5 6.925Z" fill="#FF323B"/>
</svg>
