<svg width="277" height="277" viewBox="0 0 277 277" fill="none" xmlns="http://www.w3.org/2000/svg">
<path d="M101.048 114.6V165H86.792V125.616H77.432V114.6H101.048ZM127.06 113.592C134.308 113.592 140.02 115.728 144.196 120C148.372 124.272 150.46 130.416 150.46 138.432C150.46 144.192 149.332 149.16 147.076 153.336C144.868 157.464 141.724 160.608 137.644 162.768C133.612 164.928 128.932 166.008 123.604 166.008C120.772 166.008 118.06 165.672 115.468 165C112.876 164.376 110.668 163.488 108.844 162.336L114.028 152.112C116.476 153.84 119.572 154.704 123.316 154.704C126.916 154.704 129.82 153.72 132.028 151.752C134.284 149.736 135.604 146.832 135.988 143.04C133.108 145.488 129.34 146.712 124.684 146.712C121.516 146.712 118.612 146.064 115.972 144.768C113.332 143.424 111.22 141.552 109.636 139.152C108.1 136.704 107.332 133.92 107.332 130.8C107.332 127.392 108.196 124.392 109.924 121.8C111.7 119.16 114.076 117.144 117.052 115.752C120.076 114.312 123.412 113.592 127.06 113.592ZM128.068 136.488C130.132 136.488 131.812 135.912 133.108 134.76C134.404 133.56 135.052 132 135.052 130.08C135.052 128.208 134.404 126.696 133.108 125.544C131.86 124.344 130.156 123.744 127.996 123.744C125.98 123.744 124.324 124.32 123.028 125.472C121.78 126.624 121.156 128.184 121.156 130.152C121.156 132.072 121.78 133.608 123.028 134.76C124.324 135.912 126.004 136.488 128.068 136.488ZM167.41 141.888C163.618 141.888 160.522 140.64 158.122 138.144C155.722 135.648 154.522 132.24 154.522 127.92C154.522 125.088 155.074 122.616 156.178 120.504C157.282 118.392 158.794 116.784 160.714 115.68C162.682 114.528 164.914 113.952 167.41 113.952C171.25 113.952 174.37 115.224 176.77 117.768C179.17 120.264 180.37 123.648 180.37 127.92C180.37 132.24 179.17 135.648 176.77 138.144C174.37 140.64 171.25 141.888 167.41 141.888ZM197.218 114.6H207.586L173.17 165H162.802L197.218 114.6ZM167.41 135.048C168.706 135.048 169.738 134.472 170.506 133.32C171.274 132.168 171.658 130.368 171.658 127.92C171.658 125.472 171.274 123.672 170.506 122.52C169.738 121.368 168.706 120.792 167.41 120.792C166.162 120.792 165.13 121.392 164.314 122.592C163.546 123.744 163.162 125.52 163.162 127.92C163.162 130.32 163.546 132.12 164.314 133.32C165.13 134.472 166.162 135.048 167.41 135.048ZM202.978 165.648C199.138 165.648 196.018 164.4 193.617 161.904C191.266 159.408 190.09 156 190.09 151.68C190.09 147.408 191.29 144.024 193.69 141.528C196.09 138.984 199.186 137.712 202.978 137.712C206.818 137.712 209.938 138.984 212.338 141.528C214.738 144.024 215.938 147.408 215.938 151.68C215.938 156 214.738 159.408 212.338 161.904C209.938 164.4 206.818 165.648 202.978 165.648ZM202.978 158.808C204.274 158.808 205.306 158.232 206.074 157.08C206.842 155.928 207.226 154.128 207.226 151.68C207.226 149.232 206.842 147.432 206.074 146.28C205.306 145.128 204.274 144.552 202.978 144.552C201.682 144.552 200.65 145.128 199.882 146.28C199.114 147.432 198.73 149.232 198.73 151.68C198.73 154.128 199.114 155.928 199.882 157.08C200.65 158.232 201.682 158.808 202.978 158.808Z" fill="black"/>
<path d="M277 138.5C277 214.991 214.991 277 138.5 277C62.0086 277 0 214.991 0 138.5C0 62.0086 62.0086 0 138.5 0C214.991 0 277 62.0086 277 138.5ZM13.85 138.5C13.85 207.342 69.6577 263.15 138.5 263.15C207.342 263.15 263.15 207.342 263.15 138.5C263.15 69.6577 207.342 13.85 138.5 13.85C69.6577 13.85 13.85 69.6577 13.85 138.5Z" fill="#797B80"/>
<path d="M138.5 6.925C138.5 3.10043 141.603 -0.0180601 145.422 0.173087C163.396 1.07249 181.045 5.46751 197.374 13.1359C215.795 21.7869 232.083 34.3911 245.08 50.052C258.076 65.7128 267.462 84.0455 272.569 103.746C277.095 121.208 278.162 139.365 275.732 157.196C275.216 160.986 271.579 163.46 267.82 162.755C264.061 162.05 261.605 158.433 262.101 154.64C264.167 138.813 263.178 122.713 259.162 107.221C254.566 89.4909 246.119 72.9916 234.422 58.8968C222.725 44.802 208.065 33.4582 191.486 25.6723C177 18.8691 161.359 14.9286 145.422 14.0423C141.603 13.8299 138.5 10.7496 138.5 6.925Z" fill="#FF323B"/>
</svg>
