<svg width="354" height="348" viewBox="0 0 354 348" fill="none" xmlns="http://www.w3.org/2000/svg">
<path d="M346 178C346 271.888 269.888 348 176 348C82.1116 348 6 271.888 6 178C6 84.1116 82.1116 8 176 8C269.888 8 346 84.1116 346 178ZM67.2 178C67.2 238.089 115.911 286.8 176 286.8C236.089 286.8 284.8 238.089 284.8 178C284.8 117.911 236.089 69.2 176 69.2C115.911 69.2 67.2 117.911 67.2 178Z" fill="#797B80"/>
<path d="M346 178C346 271.888 269.888 348 176 348C82.1116 348 6 271.888 6 178C6 84.1116 82.1116 8 176 8C269.888 8 346 84.1116 346 178ZM67.2 178C67.2 238.089 115.911 286.8 176 286.8C236.089 286.8 284.8 238.089 284.8 178C284.8 117.911 236.089 69.2 176 69.2C115.911 69.2 67.2 117.911 67.2 178Z" fill="#797B80"/>
<mask id="path-3-outside-1" maskUnits="userSpaceOnUse" x="26" y="0" width="156" height="128" fill="black">
<rect fill="white" x="26" width="156" height="128"/>
<path d="M172.523 8.05896C145.368 8.77435 118.779 15.9869 94.9843 29.0925C71.1899 42.1981 50.8825 60.8151 35.7634 83.3838L86.6086 117.446C96.2848 103.002 109.282 91.0868 124.51 82.6992C139.738 74.3117 156.755 69.6956 174.135 69.2377L172.523 8.05896Z"/>
</mask>
<path d="M172.523 8.05896C145.368 8.77435 118.779 15.9869 94.9843 29.0925C71.1899 42.1981 50.8825 60.8151 35.7634 83.3838L86.6086 117.446C96.2848 103.002 109.282 91.0868 124.51 82.6992C139.738 74.3117 156.755 69.6956 174.135 69.2377L172.523 8.05896Z" fill="#E5E5E5"/>
<path d="M172.523 8.05896C145.368 8.77435 118.779 15.9869 94.9843 29.0925C71.1899 42.1981 50.8825 60.8151 35.7634 83.3838L86.6086 117.446C96.2848 103.002 109.282 91.0868 124.51 82.6992C139.738 74.3117 156.755 69.6956 174.135 69.2377L172.523 8.05896Z" stroke="white" stroke-width="14" mask="url(#path-3-outside-1)"/>
<mask id="path-4-outside-2" maskUnits="userSpaceOnUse" x="171" y="0" width="183" height="291" fill="black">
<rect fill="white" x="171" width="183" height="291"/>
<path d="M312.813 280.248C331.723 255.131 343.298 225.261 346.249 193.96C349.201 162.659 343.414 131.152 329.533 102.942C315.652 74.7323 294.219 50.9246 267.618 34.1655C241.017 17.4064 210.289 8.35244 178.851 8.01008L178.185 69.2065C198.305 69.4256 217.971 75.2201 234.996 85.9459C252.02 96.6717 265.737 111.909 274.621 129.963C283.505 148.017 287.209 168.181 285.319 188.214C283.43 208.247 276.023 227.364 263.921 243.439L312.813 280.248Z"/>
</mask>
<path d="M312.813 280.248C331.723 255.131 343.298 225.261 346.249 193.96C349.201 162.659 343.414 131.152 329.533 102.942C315.652 74.7323 294.219 50.9246 267.618 34.1655C241.017 17.4064 210.289 8.35244 178.851 8.01008L178.185 69.2065C198.305 69.4256 217.971 75.2201 234.996 85.9459C252.02 96.6717 265.737 111.909 274.621 129.963C283.505 148.017 287.209 168.181 285.319 188.214C283.43 208.247 276.023 227.364 263.921 243.439L312.813 280.248Z" fill="#FF323B"/>
<path d="M312.813 280.248C331.723 255.131 343.298 225.261 346.249 193.96C349.201 162.659 343.414 131.152 329.533 102.942C315.652 74.7323 294.219 50.9246 267.618 34.1655C241.017 17.4064 210.289 8.35244 178.851 8.01008L178.185 69.2065C198.305 69.4256 217.971 75.2201 234.996 85.9459C252.02 96.6717 265.737 111.909 274.621 129.963C283.505 148.017 287.209 168.181 285.319 188.214C283.43 208.247 276.023 227.364 263.921 243.439L312.813 280.248Z" stroke="white" stroke-width="14" mask="url(#path-4-outside-2)"/>
<mask id="path-5-outside-3" maskUnits="userSpaceOnUse" x="0" y="73" width="97" height="100" fill="black">
<rect fill="white" y="73" width="97" height="100"/>
<path d="M35.9756 83.0678C20.9259 105.425 11.4071 131.039 8.20456 157.799L68.9709 165.071C71.0206 147.945 77.1126 131.552 86.7444 117.243L35.9756 83.0678Z"/>
</mask>
<path d="M35.9756 83.0678C20.9259 105.425 11.4071 131.039 8.20456 157.799L68.9709 165.071C71.0206 147.945 77.1126 131.552 86.7444 117.243L35.9756 83.0678Z" fill="#C9CACD"/>
<path d="M35.9756 83.0678C20.9259 105.425 11.4071 131.039 8.20456 157.799L68.9709 165.071C71.0206 147.945 77.1126 131.552 86.7444 117.243L35.9756 83.0678Z" stroke="white" stroke-width="14" mask="url(#path-5-outside-3)"/>
</svg>
