<svg width="488" height="93" viewBox="0 0 488 93" fill="none" xmlns="http://www.w3.org/2000/svg">
<rect x="210" y="8" width="17" height="85" fill="#D1D1D1"/>
<rect x="349" y="42" width="26" height="165" rx="10" transform="rotate(90 349 42)" fill="#D1D1D1"/>
<path d="M24.1875 22.2969L22.7461 35.2344L35.8594 31.5781L37.0195 40.4375L25.0664 41.2812L32.9062 51.7227L24.9258 55.9766L19.4414 44.9727L14.625 55.9062L6.32812 51.7227L14.0977 41.2812L2.21484 40.3672L3.58594 31.5781L16.418 35.2344L14.9766 22.2969H24.1875Z" fill="#F61932"/>
<path d="M57.9668 68L56.1035 61.8828H46.7344L44.8711 68H39L48.0703 42.1953H54.7324L63.8379 68H57.9668ZM54.8027 57.3125C53.0801 51.7695 52.1074 48.6348 51.8848 47.9082C51.6738 47.1816 51.5215 46.6074 51.4277 46.1855C51.041 47.6855 49.9336 51.3945 48.1055 57.3125H54.8027ZM88.4121 54.9043C88.4121 59.1348 87.2051 62.375 84.791 64.625C82.3887 66.875 78.9141 68 74.3672 68H67.0898V42.3008H75.1582C79.3535 42.3008 82.6113 43.4082 84.9316 45.623C87.252 47.8379 88.4121 50.9316 88.4121 54.9043ZM82.752 55.0449C82.752 49.5254 80.3145 46.7656 75.4395 46.7656H72.5391V63.5H74.877C80.127 63.5 82.752 60.6816 82.752 55.0449Z" fill="#393E49"/>
<path d="M104.619 68L98.4316 47.8379H98.2734C98.4961 51.9395 98.6074 54.6758 98.6074 56.0469V68H93.7383V42.3008H101.156L107.238 61.9531H107.344L113.795 42.3008H121.213V68H116.133V55.8359C116.133 55.2617 116.139 54.5996 116.15 53.8496C116.174 53.0996 116.256 51.1074 116.396 47.873H116.238L109.611 68H104.619ZM127.699 68V42.3008H133.148V68H127.699ZM160.395 68H154.172L148.195 58.2793L142.219 68H136.383L144.908 54.7461L136.928 42.3008H142.939L148.477 51.5469L153.908 42.3008H159.779L151.711 55.0449L160.395 68ZM178.43 68H163.629V42.3008H178.43V46.7656H169.078V52.4082H177.779V56.873H169.078V63.5H178.43V68ZM189.258 53.709H191.016C192.738 53.709 194.01 53.4219 194.83 52.8477C195.65 52.2734 196.061 51.3711 196.061 50.1406C196.061 48.9219 195.639 48.0547 194.795 47.5391C193.963 47.0234 192.668 46.7656 190.91 46.7656H189.258V53.709ZM189.258 58.1387V68H183.809V42.3008H191.297C194.789 42.3008 197.373 42.9395 199.049 44.2168C200.725 45.4824 201.562 47.4102 201.562 50C201.562 51.5117 201.146 52.8594 200.314 54.043C199.482 55.2148 198.305 56.1348 196.781 56.8027C200.648 62.5801 203.168 66.3125 204.34 68H198.293L192.158 58.1387H189.258Z" fill="#F61932"/>
<path d="M43.8931 77.2285H40.7026L39.6069 80H39L42.1582 72.1152H42.5073L45.6011 80H44.9834L43.8931 77.2285ZM40.9014 76.7344H43.7104L42.6416 73.9038C42.5521 73.6818 42.4447 73.3739 42.3193 72.98C42.2227 73.3237 42.117 73.6353 42.0024 73.9146L40.9014 76.7344ZM53.4502 75.9985C53.4502 77.3162 53.1046 78.3135 52.4136 78.9902C51.7225 79.6634 50.7073 80 49.3681 80H47.4883V72.1475H49.6098C50.8631 72.1475 51.8156 72.4751 52.4673 73.1304C53.1225 73.7856 53.4502 74.7417 53.4502 75.9985ZM52.854 76.02C52.854 74.8957 52.5675 74.0506 51.9946 73.4849C51.4253 72.9155 50.5874 72.6309 49.4809 72.6309H48.0361V79.5166H49.3359C51.6813 79.5166 52.854 78.3511 52.854 76.02ZM60.6655 72.1475H61.2617L58.3237 80H57.8403L54.913 72.1475H55.4985L57.4751 77.4917C57.7758 78.2974 57.9782 78.9025 58.082 79.3071C58.1536 79.0386 58.295 78.6214 58.5063 78.0557L60.6655 72.1475ZM67.435 80H63.1435V72.1475H67.435V72.6523H63.6913V75.6226H67.2255V76.1274H63.6913V79.4951H67.435V80ZM70.5307 76.5786V80H69.9828V72.1475H71.852C72.8259 72.1475 73.5457 72.3283 74.0112 72.6899C74.4766 73.048 74.7094 73.5887 74.7094 74.312C74.7094 74.8384 74.5697 75.2824 74.2904 75.644C74.0147 76.0057 73.594 76.2653 73.0282 76.4229L75.1606 80H74.5053L72.4804 76.5786H70.5307ZM70.5307 76.106H72.0292C72.6917 76.106 73.2055 75.9591 73.5707 75.6655C73.936 75.3683 74.1186 74.9315 74.1186 74.355C74.1186 73.757 73.9395 73.3219 73.5815 73.0498C73.2234 72.7777 72.6397 72.6416 71.8305 72.6416H70.5307V76.106ZM79.3412 80H78.788V72.6631H76.2367V72.1475H81.8925V72.6631H79.3412V80ZM83.8334 80V72.1475H84.3812V80H83.8334ZM91.7093 77.9751C91.7093 78.6304 91.4676 79.1496 90.9842 79.5327C90.5044 79.9159 89.8653 80.1074 89.0668 80.1074C88.1071 80.1074 87.3713 80.0018 86.8592 79.7905V79.2427C87.425 79.4826 88.1465 79.6025 89.0238 79.6025C89.6683 79.6025 90.1786 79.4557 90.5546 79.1621C90.9341 78.8649 91.1239 78.4764 91.1239 77.9966C91.1239 77.6994 91.0612 77.4541 90.9359 77.2607C90.8106 77.0638 90.6065 76.8848 90.3236 76.7236C90.0407 76.5625 89.6254 76.3888 89.0775 76.2026C88.2754 75.9269 87.7204 75.6297 87.4125 75.311C87.1081 74.9888 86.9559 74.5609 86.9559 74.0273C86.9559 73.4401 87.1851 72.9621 87.6434 72.5933C88.1053 72.2209 88.6979 72.0347 89.4212 72.0347C90.1589 72.0347 90.8518 72.1743 91.4999 72.4536L91.3011 72.9263C90.6494 72.6541 90.0264 72.5181 89.432 72.5181C88.8519 72.5181 88.39 72.6523 88.0462 72.9209C87.7025 73.1895 87.5306 73.5547 87.5306 74.0166C87.5306 74.3066 87.5825 74.5448 87.6864 74.731C87.7938 74.9172 87.9675 75.0854 88.2074 75.2358C88.4473 75.3826 88.8591 75.5599 89.4427 75.7676C90.055 75.9788 90.5152 76.1847 90.8231 76.3853C91.131 76.5822 91.3548 76.8078 91.4945 77.062C91.6377 77.3127 91.7093 77.617 91.7093 77.9751ZM94.139 80V72.1475H94.6869V80H94.139ZM103.39 80H102.837L98.1854 73.0283H98.1424C98.1854 73.859 98.2069 74.4857 98.2069 74.9082V80H97.6805V72.1475H98.2283L102.874 79.1084H102.907C102.874 78.4639 102.858 77.8516 102.858 77.2715V72.1475H103.39V80ZM109.477 76.0415H112.372V79.624C111.613 79.9463 110.759 80.1074 109.81 80.1074C108.571 80.1074 107.621 79.7583 106.958 79.0601C106.299 78.3582 105.97 77.3664 105.97 76.0845C105.97 75.286 106.133 74.5788 106.459 73.9629C106.788 73.3434 107.257 72.8654 107.866 72.5288C108.478 72.1922 109.18 72.0239 109.971 72.0239C110.827 72.0239 111.595 72.1815 112.276 72.4966L112.055 72.9907C111.375 72.6756 110.67 72.5181 109.939 72.5181C108.904 72.5181 108.083 72.8385 107.474 73.4795C106.869 74.1169 106.566 74.978 106.566 76.063C106.566 77.2446 106.854 78.1344 107.431 78.7324C108.007 79.3268 108.854 79.624 109.971 79.624C110.695 79.624 111.309 79.522 111.814 79.3179V76.5571H109.477V76.0415ZM120.793 80H120.24V72.6631H117.688V72.1475H123.344V72.6631H120.793V80ZM129.576 80H125.285V72.1475H129.576V72.6523H125.833V75.6226H129.367V76.1274H125.833V79.4951H129.576V80ZM135.476 72.5288C134.491 72.5288 133.716 72.8439 133.15 73.4741C132.584 74.1043 132.301 74.9673 132.301 76.063C132.301 77.1838 132.568 78.0539 133.102 78.6733C133.635 79.2928 134.398 79.6025 135.39 79.6025C136.049 79.6025 136.654 79.5184 137.205 79.3501V79.8335C136.686 80.0161 136.038 80.1074 135.261 80.1074C134.158 80.1074 133.29 79.7511 132.656 79.0386C132.022 78.326 131.705 77.3306 131.705 76.0522C131.705 75.2537 131.856 74.5501 132.156 73.9414C132.461 73.3327 132.896 72.8636 133.462 72.5342C134.031 72.2012 134.692 72.0347 135.444 72.0347C136.21 72.0347 136.896 72.1779 137.501 72.4644L137.28 72.9585C136.708 72.672 136.106 72.5288 135.476 72.5288ZM145.414 80H144.861V76.1382H140.274V80H139.726V72.1475H140.274V75.6333H144.861V72.1475H145.414V80ZM154.123 80H153.57L148.918 73.0283H148.875C148.918 73.859 148.94 74.4857 148.94 74.9082V80H148.413V72.1475H148.961L153.607 79.1084H153.639C153.607 78.4639 153.591 77.8516 153.591 77.2715V72.1475H154.123V80ZM163.723 76.063C163.723 77.3091 163.411 78.2956 162.788 79.0225C162.165 79.7458 161.306 80.1074 160.21 80.1074C159.118 80.1074 158.26 79.7458 157.637 79.0225C157.014 78.2956 156.703 77.3055 156.703 76.0522C156.703 74.8026 157.016 73.8197 157.643 73.1035C158.273 72.3838 159.132 72.0239 160.221 72.0239C161.317 72.0239 162.174 72.3856 162.794 73.1089C163.413 73.8286 163.723 74.8133 163.723 76.063ZM157.299 76.063C157.299 77.1873 157.55 78.0575 158.051 78.6733C158.552 79.2856 159.272 79.5918 160.21 79.5918C161.155 79.5918 161.877 79.2874 162.375 78.6787C162.876 78.07 163.127 77.1981 163.127 76.063C163.127 74.9315 162.876 74.0649 162.375 73.4634C161.877 72.8582 161.159 72.5557 160.221 72.5557C159.286 72.5557 158.565 72.86 158.056 73.4688C157.551 74.0775 157.299 74.9422 157.299 76.063ZM166.303 80V72.1475H166.851V79.4844H170.594V80H166.303ZM179.324 76.063C179.324 77.3091 179.013 78.2956 178.39 79.0225C177.767 79.7458 176.907 80.1074 175.812 80.1074C174.72 80.1074 173.862 79.7458 173.239 79.0225C172.616 78.2956 172.304 77.3055 172.304 76.0522C172.304 74.8026 172.618 73.8197 173.244 73.1035C173.874 72.3838 174.734 72.0239 175.822 72.0239C176.918 72.0239 177.776 72.3856 178.395 73.1089C179.015 73.8286 179.324 74.8133 179.324 76.063ZM172.901 76.063C172.901 77.1873 173.151 78.0575 173.652 78.6733C174.154 79.2856 174.873 79.5918 175.812 79.5918C176.757 79.5918 177.478 79.2874 177.976 78.6787C178.477 78.07 178.728 77.1981 178.728 76.063C178.728 74.9315 178.477 74.0649 177.976 73.4634C177.478 72.8582 176.761 72.5557 175.822 72.5557C174.888 72.5557 174.166 72.86 173.658 73.4688C173.153 74.0775 172.901 74.9422 172.901 76.063ZM184.993 76.0415H187.888V79.624C187.129 79.9463 186.275 80.1074 185.326 80.1074C184.087 80.1074 183.136 79.7583 182.474 79.0601C181.815 78.3582 181.485 77.3664 181.485 76.0845C181.485 75.286 181.648 74.5788 181.974 73.9629C182.304 73.3434 182.773 72.8654 183.381 72.5288C183.994 72.1922 184.696 72.0239 185.487 72.0239C186.343 72.0239 187.111 72.1815 187.791 72.4966L187.571 72.9907C186.891 72.6756 186.185 72.5181 185.455 72.5181C184.42 72.5181 183.598 72.8385 182.989 73.4795C182.384 74.1169 182.082 74.978 182.082 76.063C182.082 77.2446 182.37 78.1344 182.946 78.7324C183.523 79.3268 184.37 79.624 185.487 79.624C186.21 79.624 186.824 79.522 187.329 79.3179V76.5571H184.993V76.0415ZM190.634 80V72.1475H191.182V80H190.634ZM198.467 80H194.176V72.1475H198.467V72.6523H194.724V75.6226H198.258V76.1274H194.724V79.4951H198.467V80ZM205.35 77.9751C205.35 78.6304 205.108 79.1496 204.625 79.5327C204.145 79.9159 203.506 80.1074 202.707 80.1074C201.747 80.1074 201.012 80.0018 200.5 79.7905V79.2427C201.065 79.4826 201.787 79.6025 202.664 79.6025C203.309 79.6025 203.819 79.4557 204.195 79.1621C204.574 78.8649 204.764 78.4764 204.764 77.9966C204.764 77.6994 204.702 77.4541 204.576 77.2607C204.451 77.0638 204.247 76.8848 203.964 76.7236C203.681 76.5625 203.266 76.3888 202.718 76.2026C201.916 75.9269 201.361 75.6297 201.053 75.311C200.748 74.9888 200.596 74.5609 200.596 74.0273C200.596 73.4401 200.825 72.9621 201.284 72.5933C201.746 72.2209 202.338 72.0347 203.062 72.0347C203.799 72.0347 204.492 72.1743 205.14 72.4536L204.941 72.9263C204.29 72.6541 203.667 72.5181 203.072 72.5181C202.492 72.5181 202.03 72.6523 201.687 72.9209C201.343 73.1895 201.171 73.5547 201.171 74.0166C201.171 74.3066 201.223 74.5448 201.327 74.731C201.434 74.9172 201.608 75.0854 201.848 75.2358C202.088 75.3826 202.499 75.5599 203.083 75.7676C203.695 75.9788 204.155 76.1847 204.463 76.3853C204.771 76.5822 204.995 76.8078 205.135 77.062C205.278 77.3127 205.35 77.617 205.35 77.9751Z" fill="#393E49"/>
<path d="M363.053 67H358.058V47.5996H351.661V43.4424H369.45V47.5996H363.053V67ZM389.807 67L388.099 61.3926H379.51L377.802 67H372.42L380.735 43.3457H386.842L395.188 67H389.807ZM386.906 57.2031C385.327 52.1221 384.435 49.2485 384.231 48.5825C384.038 47.9165 383.898 47.3901 383.812 47.0034C383.458 48.3784 382.443 51.7783 380.767 57.2031H386.906ZM405.474 53.8999H407.086C408.665 53.8999 409.83 53.6367 410.582 53.1104C411.334 52.584 411.71 51.7568 411.71 50.6289C411.71 49.5117 411.324 48.7168 410.55 48.2441C409.787 47.7715 408.6 47.5352 406.989 47.5352H405.474V53.8999ZM405.474 57.9604V67H400.479V43.4424H407.344C410.545 43.4424 412.913 44.0278 414.45 45.1987C415.986 46.3589 416.754 48.126 416.754 50.5C416.754 51.8857 416.372 53.1211 415.61 54.2061C414.847 55.2803 413.767 56.1235 412.371 56.7358C415.916 62.0317 418.225 65.4531 419.3 67H413.757L408.133 57.9604H405.474ZM433.517 53.771H442.863V65.9849C441.348 66.479 439.92 66.8228 438.577 67.0161C437.245 67.2202 435.881 67.3223 434.484 67.3223C430.929 67.3223 428.211 66.2803 426.331 64.1963C424.462 62.1016 423.527 59.0991 423.527 55.189C423.527 51.3862 424.612 48.4214 426.782 46.2944C428.963 44.1675 431.981 43.104 435.838 43.104C438.255 43.104 440.586 43.5874 442.831 44.5542L441.171 48.5503C439.452 47.6909 437.664 47.2612 435.805 47.2612C433.646 47.2612 431.917 47.9863 430.617 49.4365C429.317 50.8867 428.667 52.8364 428.667 55.2856C428.667 57.8423 429.188 59.7974 430.23 61.1509C431.283 62.4937 432.808 63.165 434.806 63.165C435.848 63.165 436.907 63.0576 437.981 62.8428V57.9282H433.517V53.771ZM464.364 67H450.797V43.4424H464.364V47.5352H455.792V52.7075H463.768V56.8003H455.792V62.875H464.364V67ZM480.693 67H475.697V47.5996H469.3V43.4424H487.09V47.5996H480.693V67Z" fill="black"/>
<path d="M350.519 53.8281C349.937 45.0709 342.929 38.0627 334.172 37.4813V35H333H331.828V37.4813C323.071 38.0627 316.063 45.0709 315.481 53.8281H313V56.1719H315.481C316.063 64.9291 323.071 71.9373 331.828 72.5187V75H333H334.172V72.5187C342.929 71.9373 349.937 64.9291 350.519 56.1719H353V53.8281H350.519ZM348.175 56.1719C347.603 63.6366 341.637 69.6025 334.172 70.175V67.8906H333H331.828V70.175C324.363 69.6025 318.398 63.6366 317.825 56.1719H320.109V53.8281H317.825C318.398 46.3634 324.363 40.3975 331.828 39.825V42.1094H333H334.172V39.825C341.637 40.3975 347.603 46.3634 348.175 53.8281H345.891V56.1711L348.175 56.1719Z" fill="#606B89"/>
<path d="M334.172 72.5187C342.929 71.9373 349.937 64.9291 350.519 56.1719H353V53.8281H350.519C349.937 45.0709 342.929 38.0627 334.172 37.4813V35H333V42.1094H334.172V39.825C341.637 40.3975 347.602 46.3634 348.175 53.8281H345.891V56.1711L348.175 56.1719C347.602 63.6366 341.637 69.6025 334.172 70.175V67.8906H333V75H334.172V72.5187Z" fill="#606B89"/>
<path d="M337.057 46.7969C335.085 46.7969 333.799 47.8543 333 48.9289C332.201 47.8543 330.915 46.7969 328.943 46.7969C326.011 46.7969 323.715 49.2459 323.715 52.3724C323.715 55.7106 326.409 57.9846 330.138 61.1317C330.796 61.6879 331.496 62.2784 332.232 62.917L333 63.582L333.768 62.917C334.504 62.2784 335.204 61.688 335.862 61.1317C339.591 57.9846 342.285 55.7106 342.285 52.3724C342.285 49.2459 339.989 46.7969 337.057 46.7969Z" fill="#F61932"/>
<path d="M335.862 61.1317C339.591 57.9846 342.285 55.7106 342.285 52.3724C342.285 49.2459 339.989 46.7969 337.057 46.7969C335.085 46.7969 333.799 47.8543 333 48.9289V63.582L333.768 62.917C334.504 62.2784 335.204 61.6879 335.862 61.1317Z" fill="#F61932"/>
<path d="M237.395 65.49L237.46 67.505C237.46 68.7183 237.113 69.325 236.42 69.325C235.38 69.325 234.383 69.195 233.43 68.935C232.477 68.6317 232 68.2417 232 67.765C232 67.245 232.108 65.5333 232.325 62.63C232.585 59.6833 232.715 57.4733 232.715 56V52.165C232.715 50.085 232.932 48.8283 233.365 48.395C233.798 47.9617 234.557 47.3333 235.64 46.51C236.767 45.6867 237.568 45.275 238.045 45.275C238.565 45.275 238.89 45.3617 239.02 45.535C239.15 45.7083 239.215 46.0333 239.215 46.51C239.215 48.8067 238.782 50.9733 237.915 53.01C237.698 55.48 237.59 57.1917 237.59 58.145C239.887 53.855 241.49 51.0383 242.4 49.695C244.003 47.1817 245.455 45.925 246.755 45.925C247.578 45.925 248.337 46.25 249.03 46.9C249.767 47.55 250.135 48.3517 250.135 49.305C250.135 50.2583 250.113 51.1683 250.07 52.035C250.07 52.8583 250.048 53.5083 250.005 53.985C249.962 54.4617 249.94 54.765 249.94 54.895C250.113 54.5483 250.85 53.5733 252.15 51.97C253.45 50.3667 254.317 49.3267 254.75 48.85C255.227 48.3733 255.725 47.8967 256.245 47.42C257.242 46.4233 258.13 45.925 258.91 45.925C259.733 45.925 260.492 46.2283 261.185 46.835C261.922 47.4417 262.29 48.2 262.29 49.11C262.29 51.0167 262.073 53.8333 261.64 57.56C261.25 61.2433 261.055 63.5833 261.055 64.58C261.055 65.5333 261.185 66.01 261.445 66.01C262.182 65.9667 263.2 65.0567 264.5 63.28C265.8 61.46 267.078 59.1417 268.335 56.325C269.635 53.5083 270.415 52.1 270.675 52.1C270.978 52.1 271.13 52.2733 271.13 52.62C271.13 53.8333 270.502 55.7617 269.245 58.405C265.822 65.685 262.94 69.325 260.6 69.325C259.127 69.325 257.957 68.9783 257.09 68.285C256.787 67.9817 256.635 67.2017 256.635 65.945C256.635 64.645 256.743 62.565 256.96 59.705C257.22 56.8017 257.35 54.635 257.35 53.205C257.35 51.775 257.112 51.06 256.635 51.06C256.072 51.06 254.837 52.0133 252.93 53.92C251.067 55.8267 250.07 57.17 249.94 57.95C249.68 59.4233 249.55 62.6083 249.55 67.505C249.55 68.7183 249.225 69.325 248.575 69.325C247.578 69.325 246.625 69.195 245.715 68.935C244.848 68.6317 244.415 68.2417 244.415 67.765C244.415 67.245 244.545 65.1 244.805 61.33C245.065 57.56 245.195 54.9167 245.195 53.4C245.195 51.84 244.935 51.06 244.415 51.06C243.938 51.06 242.747 52.555 240.84 55.545C238.933 58.4917 237.872 60.55 237.655 61.72C237.482 62.89 237.395 64.1467 237.395 65.49ZM279.709 69.325C277.283 69.325 275.354 68.415 273.924 66.595C272.494 64.7317 271.779 62.63 271.779 60.29C271.779 55.5667 272.776 51.9917 274.769 49.565C276.763 47.1383 279.341 45.925 282.504 45.925C283.978 45.925 285.191 46.3367 286.144 47.16C287.098 47.94 287.574 49.0233 287.574 50.41C287.574 53.01 286.469 55.1983 284.259 56.975C282.093 58.7083 279.428 59.6183 276.264 59.705C276.438 61.395 277.001 62.8683 277.954 64.125C278.951 65.3383 280.099 65.945 281.399 65.945C282.699 65.945 283.869 65.6417 284.909 65.035C285.949 64.4283 286.903 63.5617 287.769 62.435C289.589 60.0517 291.149 57.3433 292.449 54.31C292.796 53.53 293.056 52.9667 293.229 52.62C293.446 52.2733 293.663 52.1 293.879 52.1C294.139 52.1 294.269 52.2733 294.269 52.62C294.269 54.7867 292.948 58.0367 290.304 62.37C287.444 67.0067 283.913 69.325 279.709 69.325ZM276.264 58.145C278.821 57.7117 280.684 56.8883 281.854 55.675C283.068 54.4617 283.674 52.88 283.674 50.93C283.674 48.98 283.046 48.005 281.789 48.005C280.273 48.005 278.994 49.0667 277.954 51.19C276.914 53.27 276.351 55.5883 276.264 58.145ZM322.412 55.545C324.232 55.545 325.922 54.765 327.482 53.205C328.262 52.425 328.782 52.035 329.042 52.035C329.346 52.035 329.497 52.2517 329.497 52.685C329.497 53.1183 329.216 53.6383 328.652 54.245C326.356 56.8017 323.474 58.08 320.007 58.08C319.314 61.2867 318.231 63.9733 316.757 66.14C315.284 68.2633 313.421 69.325 311.167 69.325C308.914 69.325 307.289 68.0033 306.292 65.36C304.516 68.0033 302.674 69.325 300.767 69.325C297.171 69.325 295.372 65.8583 295.372 58.925C295.372 54.115 295.849 50.8433 296.802 49.11C296.976 48.8067 297.626 48.3083 298.752 47.615C299.879 46.9217 300.659 46.575 301.092 46.575C301.742 46.575 302.067 46.965 302.067 47.745C301.981 49.7817 301.374 52.1867 300.247 54.96C299.987 55.48 299.857 56.7367 299.857 58.73C299.857 60.68 300.074 62.4133 300.507 63.93C300.984 65.4033 301.656 66.14 302.522 66.14C303.389 66.14 304.451 65.1 305.707 63.02C305.491 61.9367 305.382 60.7883 305.382 59.575C305.382 58.3183 305.512 56.9967 305.772 55.61C306.032 54.18 306.552 52.75 307.332 51.32C308.112 49.89 309.044 49.175 310.127 49.175C310.474 49.175 310.712 49.2833 310.842 49.5C311.016 49.7167 311.102 50.2367 311.102 51.06C311.102 53.27 310.517 56.0217 309.347 59.315C309.521 61.2217 309.954 62.8467 310.647 64.19C311.384 65.49 312.186 66.14 313.052 66.14C314.309 66.14 315.371 65.3383 316.237 63.735C317.104 62.0883 317.776 60.095 318.252 57.755C316.649 57.3217 315.414 56.4983 314.547 55.285C313.681 54.0717 313.247 52.685 313.247 51.125C313.247 49.5217 313.616 48.1567 314.352 47.03C315.132 45.86 316.259 45.275 317.732 45.275C319.726 45.275 320.722 47.42 320.722 51.71C320.722 52.8367 320.657 54.0067 320.527 55.22C321.177 55.4367 321.806 55.545 322.412 55.545ZM317.277 47.745C316.887 47.745 316.692 48.4817 316.692 49.955C316.692 51.4283 317.364 52.7933 318.707 54.05C318.751 53.8333 318.772 53.5083 318.772 53.075C318.772 49.5217 318.274 47.745 317.277 47.745Z" fill="#F61932"/>
</svg>
