<svg width="604" height="243" viewBox="0 0 604 243" fill="none" xmlns="http://www.w3.org/2000/svg">
<path d="M30.9062 28.1016L29.0645 44.6328L45.8203 39.9609L47.3027 51.2812L32.0293 52.3594L42.0469 65.7012L31.8496 71.1367L24.8418 57.0762L18.6875 71.0469L8.08594 65.7012L18.0137 52.3594L2.83008 51.1914L4.58203 39.9609L20.9785 44.6328L19.1367 28.1016H30.9062Z" fill="white"/>
<path d="M84.7725 101L81.3564 89.7852H64.1797L60.7637 101H50L66.6289 53.6914H78.8428L95.5361 101H84.7725ZM78.9717 81.4062C75.8135 71.2441 74.0303 65.4971 73.6221 64.165C73.2354 62.833 72.9561 61.7803 72.7842 61.0068C72.0752 63.7568 70.0449 70.5566 66.6934 81.4062H78.9717ZM140.589 76.9912C140.589 84.7471 138.376 90.6875 133.95 94.8125C129.546 98.9375 123.176 101 114.84 101H101.498V53.8848H116.29C123.981 53.8848 129.954 55.915 134.208 59.9756C138.462 64.0361 140.589 69.708 140.589 76.9912ZM130.212 77.249C130.212 67.1299 125.743 62.0703 116.806 62.0703H111.488V92.75H115.774C125.399 92.75 130.212 87.583 130.212 77.249ZM170.302 101L158.958 64.0361H158.668C159.076 71.5557 159.28 76.5723 159.28 79.0859V101H150.354V53.8848H163.953L175.104 89.9141H175.297L187.124 53.8848H200.724V101H191.41V78.6992C191.41 77.6465 191.421 76.4326 191.442 75.0576C191.485 73.6826 191.636 70.0303 191.894 64.1006H191.604L179.454 101H170.302ZM212.615 101V53.8848H222.605V101H212.615ZM272.557 101H261.148L250.191 83.1787L239.234 101H228.535L244.165 76.7012L229.534 53.8848H240.556L250.707 70.8359L260.665 53.8848H271.429L256.637 77.249L272.557 101ZM305.621 101H278.486V53.8848H305.621V62.0703H288.477V72.415H304.429V80.6006H288.477V92.75H305.621V101ZM325.473 74.7998H328.695C331.854 74.7998 334.185 74.2734 335.688 73.2207C337.192 72.168 337.944 70.5137 337.944 68.2578C337.944 66.0234 337.171 64.4336 335.624 63.4883C334.099 62.543 331.725 62.0703 328.502 62.0703H325.473V74.7998ZM325.473 82.9209V101H315.482V53.8848H329.211C335.613 53.8848 340.351 55.0557 343.423 57.3975C346.495 59.7178 348.031 63.252 348.031 68C348.031 70.7715 347.269 73.2422 345.743 75.4121C344.218 77.5605 342.059 79.2471 339.266 80.4717C346.355 91.0635 350.975 97.9062 353.123 101H342.037L330.79 82.9209H325.473Z" fill="white"/>
<path d="M60.9375 128L59.1602 123.459H53.4375L51.6797 128H50L55.6445 113.664H57.041L62.6562 128H60.9375ZM58.6426 121.965L56.9824 117.541C56.7676 116.981 56.5462 116.294 56.3184 115.48C56.1751 116.105 55.9701 116.792 55.7031 117.541L54.0234 121.965H58.6426ZM77.2156 120.725C77.2156 123.081 76.5743 124.885 75.2918 126.135C74.0158 127.378 72.1766 128 69.7742 128H65.8191V113.723H70.1941C72.4142 113.723 74.1395 114.338 75.3699 115.568C76.6004 116.799 77.2156 118.518 77.2156 120.725ZM75.4578 120.783C75.4578 118.921 74.9891 117.518 74.0516 116.574C73.1206 115.63 71.7339 115.158 69.8914 115.158H67.4793V126.564H69.5008C71.4799 126.564 72.9676 126.079 73.9637 125.109C74.9598 124.133 75.4578 122.691 75.4578 120.783ZM89.7633 113.723H91.5504L86.4039 128H84.7633L79.6461 113.723H81.4039L84.6852 122.961C85.0628 124.022 85.3622 125.054 85.5836 126.057C85.818 125.002 86.124 123.951 86.5016 122.902L89.7633 113.723ZM102.682 128H94.723V113.723H102.682V115.197H96.3832V119.797H102.301V121.262H96.3832V126.516H102.682V128ZM108.716 122.062V128H107.056V113.723H110.972C112.723 113.723 114.015 114.058 114.849 114.729C115.689 115.399 116.109 116.408 116.109 117.756C116.109 119.644 115.152 120.92 113.237 121.584L117.114 128H115.152L111.695 122.062H108.716ZM108.716 120.637H110.991C112.163 120.637 113.023 120.406 113.57 119.943C114.116 119.475 114.39 118.775 114.39 117.844C114.39 116.9 114.11 116.219 113.55 115.803C112.997 115.386 112.105 115.178 110.874 115.178H108.716V120.637ZM125.014 128H123.354V115.197H118.832V113.723H129.535V115.197H125.014V128ZM132.893 128V113.723H134.554V128H132.893ZM147.736 124.201C147.736 125.458 147.28 126.438 146.369 127.141C145.457 127.844 144.22 128.195 142.658 128.195C140.965 128.195 139.663 127.977 138.752 127.541V125.939C139.338 126.187 139.976 126.382 140.666 126.525C141.356 126.669 142.039 126.74 142.716 126.74C143.823 126.74 144.657 126.532 145.216 126.115C145.776 125.692 146.056 125.106 146.056 124.357C146.056 123.863 145.955 123.459 145.754 123.146C145.558 122.827 145.226 122.535 144.757 122.268C144.295 122.001 143.589 121.698 142.638 121.359C141.31 120.884 140.36 120.321 139.787 119.67C139.22 119.019 138.937 118.169 138.937 117.121C138.937 116.021 139.351 115.145 140.177 114.494C141.004 113.843 142.098 113.518 143.459 113.518C144.878 113.518 146.183 113.778 147.375 114.299L146.857 115.744C145.679 115.249 144.533 115.002 143.42 115.002C142.541 115.002 141.854 115.191 141.359 115.568C140.864 115.946 140.617 116.47 140.617 117.141C140.617 117.635 140.708 118.042 140.89 118.361C141.073 118.674 141.379 118.964 141.808 119.23C142.244 119.491 142.908 119.781 143.8 120.1C145.298 120.633 146.326 121.206 146.886 121.818C147.453 122.43 147.736 123.225 147.736 124.201ZM151.856 128V113.723H153.516V128H151.856ZM169.794 128H167.9L160.097 116.018H160.019C160.123 117.424 160.175 118.713 160.175 119.885V128H158.642V113.723H160.517L168.3 125.656H168.378C168.365 125.48 168.336 124.917 168.29 123.967C168.245 123.01 168.228 122.326 168.241 121.916V113.723H169.794V128ZM181.199 120.52H186.053V127.463C185.298 127.704 184.529 127.886 183.748 128.01C182.967 128.133 182.062 128.195 181.033 128.195C178.872 128.195 177.189 127.554 175.984 126.271C174.78 124.982 174.178 123.179 174.178 120.861C174.178 119.377 174.474 118.078 175.066 116.965C175.665 115.845 176.525 114.992 177.645 114.406C178.764 113.814 180.076 113.518 181.58 113.518C183.104 113.518 184.523 113.798 185.838 114.357L185.193 115.822C183.904 115.275 182.664 115.002 181.473 115.002C179.734 115.002 178.377 115.52 177.4 116.555C176.424 117.59 175.936 119.025 175.936 120.861C175.936 122.788 176.404 124.25 177.342 125.246C178.286 126.242 179.669 126.74 181.492 126.74C182.482 126.74 183.449 126.626 184.393 126.398V122.004H181.199V120.52ZM201.48 128H199.82V115.197H195.298V113.723H206.002V115.197H201.48V128ZM217.319 128H209.36V113.723H217.319V115.197H211.02V119.797H216.938V121.262H211.02V126.516H217.319V128ZM227.806 115.002C226.237 115.002 224.997 115.526 224.085 116.574C223.18 117.616 222.728 119.045 222.728 120.861C222.728 122.73 223.164 124.175 224.036 125.197C224.915 126.213 226.165 126.721 227.786 126.721C228.782 126.721 229.918 126.542 231.195 126.184V127.639C230.205 128.01 228.984 128.195 227.532 128.195C225.43 128.195 223.805 127.557 222.659 126.281C221.52 125.005 220.95 123.192 220.95 120.842C220.95 119.37 221.224 118.081 221.771 116.975C222.324 115.868 223.118 115.015 224.154 114.416C225.195 113.817 226.419 113.518 227.825 113.518C229.323 113.518 230.631 113.791 231.751 114.338L231.048 115.764C229.967 115.256 228.887 115.002 227.806 115.002ZM246.35 128H244.689V121.281H237.17V128H235.51V113.723H237.17V119.797H244.689V113.723H246.35V128ZM262.628 128H260.733L252.93 116.018H252.852C252.957 117.424 253.009 118.713 253.009 119.885V128H251.475V113.723H253.35L261.134 125.656H261.212C261.199 125.48 261.169 124.917 261.124 123.967C261.078 123.01 261.062 122.326 261.075 121.916V113.723H262.628V128ZM280.146 120.842C280.146 123.127 279.567 124.924 278.408 126.232C277.255 127.541 275.651 128.195 273.593 128.195C271.49 128.195 269.866 127.554 268.72 126.271C267.581 124.982 267.011 123.166 267.011 120.822C267.011 118.498 267.584 116.698 268.73 115.422C269.876 114.139 271.504 113.498 273.613 113.498C275.664 113.498 277.265 114.149 278.418 115.451C279.57 116.753 280.146 118.55 280.146 120.842ZM268.769 120.842C268.769 122.775 269.179 124.243 270 125.246C270.826 126.242 272.024 126.74 273.593 126.74C275.175 126.74 276.37 126.242 277.177 125.246C277.985 124.25 278.388 122.782 278.388 120.842C278.388 118.921 277.985 117.466 277.177 116.477C276.377 115.48 275.188 114.982 273.613 114.982C272.031 114.982 270.826 115.484 270 116.486C269.179 117.482 268.769 118.934 268.769 120.842ZM284.539 128V113.723H286.2V126.496H292.498V128H284.539ZM308.523 120.842C308.523 123.127 307.943 124.924 306.784 126.232C305.632 127.541 304.027 128.195 301.97 128.195C299.867 128.195 298.243 127.554 297.097 126.271C295.958 124.982 295.388 123.166 295.388 120.822C295.388 118.498 295.961 116.698 297.107 115.422C298.252 114.139 299.88 113.498 301.989 113.498C304.04 113.498 305.642 114.149 306.794 115.451C307.946 116.753 308.523 118.55 308.523 120.842ZM297.146 120.842C297.146 122.775 297.556 124.243 298.376 125.246C299.203 126.242 300.401 126.74 301.97 126.74C303.552 126.74 304.747 126.242 305.554 125.246C306.361 124.25 306.765 122.782 306.765 120.842C306.765 118.921 306.361 117.466 305.554 116.477C304.753 115.48 303.565 114.982 301.989 114.982C300.407 114.982 299.203 115.484 298.376 116.486C297.556 117.482 297.146 118.934 297.146 120.842ZM319.195 120.52H324.049V127.463C323.294 127.704 322.525 127.886 321.744 128.01C320.963 128.133 320.058 128.195 319.029 128.195C316.868 128.195 315.185 127.554 313.98 126.271C312.776 124.982 312.174 123.179 312.174 120.861C312.174 119.377 312.47 118.078 313.062 116.965C313.661 115.845 314.521 114.992 315.641 114.406C316.76 113.814 318.072 113.518 319.576 113.518C321.1 113.518 322.519 113.798 323.834 114.357L323.189 115.822C321.9 115.275 320.66 115.002 319.469 115.002C317.73 115.002 316.373 115.52 315.396 116.555C314.42 117.59 313.932 119.025 313.932 120.861C313.932 122.788 314.4 124.25 315.338 125.246C316.282 126.242 317.665 126.74 319.488 126.74C320.478 126.74 321.445 126.626 322.389 126.398V122.004H319.195V120.52ZM328.686 128V113.723H330.346V128H328.686ZM343.431 128H335.472V113.723H343.431V115.197H337.132V119.797H343.05V121.262H337.132V126.516H343.431V128ZM355.862 124.201C355.862 125.458 355.406 126.438 354.495 127.141C353.583 127.844 352.346 128.195 350.784 128.195C349.091 128.195 347.789 127.977 346.877 127.541V125.939C347.463 126.187 348.101 126.382 348.791 126.525C349.482 126.669 350.165 126.74 350.842 126.74C351.949 126.74 352.782 126.532 353.342 126.115C353.902 125.692 354.182 125.106 354.182 124.357C354.182 123.863 354.081 123.459 353.879 123.146C353.684 122.827 353.352 122.535 352.883 122.268C352.421 122.001 351.715 121.698 350.764 121.359C349.436 120.884 348.485 120.321 347.913 119.67C347.346 119.019 347.063 118.169 347.063 117.121C347.063 116.021 347.476 115.145 348.303 114.494C349.13 113.843 350.224 113.518 351.584 113.518C353.004 113.518 354.309 113.778 355.5 114.299L354.983 115.744C353.804 115.249 352.659 115.002 351.545 115.002C350.666 115.002 349.98 115.191 349.485 115.568C348.99 115.946 348.743 116.47 348.743 117.141C348.743 117.635 348.834 118.042 349.016 118.361C349.198 118.674 349.504 118.964 349.934 119.23C350.37 119.491 351.034 119.781 351.926 120.1C353.424 120.633 354.452 121.206 355.012 121.818C355.579 122.43 355.862 123.225 355.862 124.201Z" fill="white"/>
<path d="M409.278 196.242C408.406 183.106 397.894 172.594 384.758 171.722V168H383H381.242V171.722C368.106 172.594 357.594 183.106 356.722 196.242H353V199.758H356.722C357.594 212.894 368.106 223.406 381.242 224.278V228H383H384.758V224.278C397.894 223.406 408.406 212.894 409.278 199.758H413V196.242H409.278ZM405.762 199.758C404.904 210.955 395.955 219.904 384.758 220.762V217.336H383H381.242V220.762C370.045 219.904 361.096 210.955 360.237 199.758H363.664V196.242H360.237C361.096 185.045 370.045 176.096 381.242 175.237V178.664H383H384.758V175.237C395.955 176.096 404.904 185.045 405.762 196.242H402.336V199.757L405.762 199.758Z" fill="black"/>
<path d="M384.758 224.278C397.894 223.406 408.406 212.894 409.278 199.758H413V196.242H409.278C408.406 183.106 397.894 172.594 384.758 171.722V168H383V178.664H384.758V175.237C395.955 176.096 404.904 185.045 405.762 196.242H402.336V199.757L405.762 199.758C404.904 210.955 395.955 219.904 384.758 220.762V217.336H383V228H384.758V224.278Z" fill="black"/>
<path d="M389.085 185.695C386.128 185.695 384.198 187.281 383 188.893C381.802 187.281 379.872 185.695 376.915 185.695C372.517 185.695 369.073 189.369 369.073 194.059C369.073 199.066 373.114 202.477 378.707 207.198C379.694 208.032 380.744 208.918 381.848 209.876L383 210.873L384.152 209.876C385.256 208.918 386.306 208.032 387.293 207.198C392.886 202.477 396.927 199.066 396.927 194.059C396.927 189.369 393.483 185.695 389.085 185.695Z" fill="black"/>
<path d="M387.293 207.198C392.886 202.477 396.927 199.066 396.927 194.059C396.927 189.369 393.483 185.695 389.085 185.695C386.128 185.695 384.198 187.281 383 188.893V210.873L384.152 209.876C385.256 208.918 386.306 208.032 387.293 207.198Z" fill="black"/>
<path d="M262.64 212.68L262.72 215.16C262.72 216.653 262.293 217.4 261.44 217.4C260.16 217.4 258.933 217.24 257.76 216.92C256.587 216.547 256 216.067 256 215.48C256 214.84 256.133 212.733 256.4 209.16C256.72 205.533 256.88 202.813 256.88 201V196.28C256.88 193.72 257.147 192.173 257.68 191.64C258.213 191.107 259.147 190.333 260.48 189.32C261.867 188.307 262.853 187.8 263.44 187.8C264.08 187.8 264.48 187.907 264.64 188.12C264.8 188.333 264.88 188.733 264.88 189.32C264.88 192.147 264.347 194.813 263.28 197.32C263.013 200.36 262.88 202.467 262.88 203.64C265.707 198.36 267.68 194.893 268.8 193.24C270.773 190.147 272.56 188.6 274.16 188.6C275.173 188.6 276.107 189 276.96 189.8C277.867 190.6 278.32 191.587 278.32 192.76C278.32 193.933 278.293 195.053 278.24 196.12C278.24 197.133 278.213 197.933 278.16 198.52C278.107 199.107 278.08 199.48 278.08 199.64C278.293 199.213 279.2 198.013 280.8 196.04C282.4 194.067 283.467 192.787 284 192.2C284.587 191.613 285.2 191.027 285.84 190.44C287.067 189.213 288.16 188.6 289.12 188.6C290.133 188.6 291.067 188.973 291.92 189.72C292.827 190.467 293.28 191.4 293.28 192.52C293.28 194.867 293.013 198.333 292.48 202.92C292 207.453 291.76 210.333 291.76 211.56C291.76 212.733 291.92 213.32 292.24 213.32C293.147 213.267 294.4 212.147 296 209.96C297.6 207.72 299.173 204.867 300.72 201.4C302.32 197.933 303.28 196.2 303.6 196.2C303.973 196.2 304.16 196.413 304.16 196.84C304.16 198.333 303.387 200.707 301.84 203.96C297.627 212.92 294.08 217.4 291.2 217.4C289.387 217.4 287.947 216.973 286.88 216.12C286.507 215.747 286.32 214.787 286.32 213.24C286.32 211.64 286.453 209.08 286.72 205.56C287.04 201.987 287.2 199.32 287.2 197.56C287.2 195.8 286.907 194.92 286.32 194.92C285.627 194.92 284.107 196.093 281.76 198.44C279.467 200.787 278.24 202.44 278.08 203.4C277.76 205.213 277.6 209.133 277.6 215.16C277.6 216.653 277.2 217.4 276.4 217.4C275.173 217.4 274 217.24 272.88 216.92C271.813 216.547 271.28 216.067 271.28 215.48C271.28 214.84 271.44 212.2 271.76 207.56C272.08 202.92 272.24 199.667 272.24 197.8C272.24 195.88 271.92 194.92 271.28 194.92C270.693 194.92 269.227 196.76 266.88 200.44C264.533 204.067 263.227 206.6 262.96 208.04C262.747 209.48 262.64 211.027 262.64 212.68ZM314.719 217.4C311.733 217.4 309.359 216.28 307.599 214.04C305.839 211.747 304.959 209.16 304.959 206.28C304.959 200.467 306.186 196.067 308.639 193.08C311.093 190.093 314.266 188.6 318.159 188.6C319.973 188.6 321.466 189.107 322.639 190.12C323.813 191.08 324.399 192.413 324.399 194.12C324.399 197.32 323.039 200.013 320.319 202.2C317.653 204.333 314.373 205.453 310.479 205.56C310.693 207.64 311.386 209.453 312.559 211C313.786 212.493 315.199 213.24 316.799 213.24C318.399 213.24 319.839 212.867 321.119 212.12C322.399 211.373 323.573 210.307 324.639 208.92C326.879 205.987 328.799 202.653 330.399 198.92C330.826 197.96 331.146 197.267 331.359 196.84C331.626 196.413 331.893 196.2 332.159 196.2C332.479 196.2 332.639 196.413 332.639 196.84C332.639 199.507 331.013 203.507 327.759 208.84C324.239 214.547 319.893 217.4 314.719 217.4ZM310.479 203.64C313.626 203.107 315.919 202.093 317.359 200.6C318.853 199.107 319.599 197.16 319.599 194.76C319.599 192.36 318.826 191.16 317.279 191.16C315.413 191.16 313.839 192.467 312.559 195.08C311.279 197.64 310.586 200.493 310.479 203.64ZM367.277 200.44C369.517 200.44 371.597 199.48 373.517 197.56C374.477 196.6 375.117 196.12 375.437 196.12C375.81 196.12 375.997 196.387 375.997 196.92C375.997 197.453 375.65 198.093 374.957 198.84C372.13 201.987 368.584 203.56 364.317 203.56C363.464 207.507 362.13 210.813 360.317 213.48C358.504 216.093 356.21 217.4 353.437 217.4C350.664 217.4 348.664 215.773 347.437 212.52C345.25 215.773 342.984 217.4 340.637 217.4C336.21 217.4 333.997 213.133 333.997 204.6C333.997 198.68 334.584 194.653 335.757 192.52C335.97 192.147 336.77 191.533 338.157 190.68C339.544 189.827 340.504 189.4 341.037 189.4C341.837 189.4 342.237 189.88 342.237 190.84C342.13 193.347 341.384 196.307 339.997 199.72C339.677 200.36 339.517 201.907 339.517 204.36C339.517 206.76 339.784 208.893 340.317 210.76C340.904 212.573 341.73 213.48 342.797 213.48C343.864 213.48 345.17 212.2 346.717 209.64C346.45 208.307 346.317 206.893 346.317 205.4C346.317 203.853 346.477 202.227 346.797 200.52C347.117 198.76 347.757 197 348.717 195.24C349.677 193.48 350.824 192.6 352.157 192.6C352.584 192.6 352.877 192.733 353.037 193C353.25 193.267 353.357 193.907 353.357 194.92C353.357 197.64 352.637 201.027 351.197 205.08C351.41 207.427 351.944 209.427 352.797 211.08C353.704 212.68 354.69 213.48 355.757 213.48C357.304 213.48 358.61 212.493 359.677 210.52C360.744 208.493 361.57 206.04 362.157 203.16C360.184 202.627 358.664 201.613 357.597 200.12C356.53 198.627 355.997 196.92 355.997 195C355.997 193.027 356.45 191.347 357.357 189.96C358.317 188.52 359.704 187.8 361.517 187.8C363.97 187.8 365.197 190.44 365.197 195.72C365.197 197.107 365.117 198.547 364.957 200.04C365.757 200.307 366.53 200.44 367.277 200.44ZM360.957 190.84C360.477 190.84 360.237 191.747 360.237 193.56C360.237 195.373 361.064 197.053 362.717 198.6C362.77 198.333 362.797 197.933 362.797 197.4C362.797 193.027 362.184 190.84 360.957 190.84Z" fill="white"/>
<path d="M429.801 220H422.838V192.957H413.921V187.162H438.718V192.957H429.801V220ZM467.094 220L464.713 212.184H452.741L450.361 220H442.859L454.449 187.027H462.961L474.596 220H467.094ZM463.051 206.344C460.85 199.261 459.607 195.256 459.323 194.327C459.053 193.399 458.858 192.665 458.739 192.126C458.244 194.043 456.829 198.782 454.493 206.344H463.051ZM488.934 201.739H491.18C493.381 201.739 495.006 201.372 496.054 200.639C497.102 199.905 497.627 198.752 497.627 197.18C497.627 195.622 497.087 194.514 496.009 193.855C494.946 193.197 493.292 192.867 491.045 192.867H488.934V201.739ZM488.934 207.399V220H481.971V187.162H491.54C496.002 187.162 499.304 187.978 501.445 189.61C503.586 191.228 504.657 193.691 504.657 197C504.657 198.932 504.125 200.654 503.062 202.166C501.999 203.663 500.494 204.839 498.547 205.692C503.489 213.075 506.708 217.844 508.206 220H500.479L492.64 207.399H488.934ZM528.024 201.56H541.052V218.585C538.94 219.274 536.949 219.753 535.077 220.022C533.22 220.307 531.319 220.449 529.372 220.449C524.416 220.449 520.627 218.997 518.007 216.092C515.401 213.172 514.098 208.987 514.098 203.536C514.098 198.235 515.611 194.103 518.636 191.138C521.675 188.173 525.883 186.69 531.259 186.69C534.628 186.69 537.877 187.364 541.007 188.712L538.693 194.282C536.297 193.084 533.804 192.485 531.214 192.485C528.204 192.485 525.793 193.496 523.981 195.518C522.169 197.539 521.264 200.257 521.264 203.671C521.264 207.235 521.99 209.96 523.442 211.847C524.91 213.718 527.036 214.654 529.821 214.654C531.274 214.654 532.749 214.505 534.246 214.205V207.354H528.024V201.56ZM571.023 220H552.11V187.162H571.023V192.867H559.073V200.077H570.192V205.782H559.073V214.25H571.023V220ZM593.784 220H586.821V192.957H577.904V187.162H602.701V192.957H593.784V220Z" fill="white"/>
</svg>
