<svg width="41" height="41" viewBox="0 0 41 41" fill="none" xmlns="http://www.w3.org/2000/svg">
<path d="M20.5 0C9.19645 0 0 9.19645 0 20.5C0 31.8036 9.19645 41 20.5 41C24.1048 41 27.6494 40.0516 30.7525 38.2561L28.1875 33.8192C25.8628 35.1643 23.2039 35.875 20.5 35.875C12.0218 35.875 5.12498 28.9782 5.12498 20.5C5.12498 12.0218 12.0218 5.12498 20.5 5.12498C28.9782 5.12498 35.875 12.0218 35.875 20.5V22.7322C35.875 24.4088 34.7977 25.625 33.3125 25.625C31.8998 25.625 30.75 24.4751 30.75 23.0624V12.8125H27.2077C25.405 11.2376 23.076 10.25 20.5 10.25C14.8482 10.25 10.25 14.8482 10.25 20.5C10.25 26.1518 14.8482 30.75 20.5 30.75C23.1914 30.75 25.6247 29.6857 27.4556 27.983C28.8668 29.6601 30.9541 30.75 33.3125 30.75C37.623 30.75 41 27.2279 41 22.7322V20.5C41 9.19645 31.8036 0 20.5 0V0ZM20.5 25.625C17.6735 25.625 15.375 23.3265 15.375 20.5C15.375 17.6735 17.6735 15.375 20.5 15.375C23.3265 15.375 25.625 17.6735 25.625 20.5C25.625 23.3265 23.3265 25.625 20.5 25.625Z" fill="#797B80"/>
</svg>
