<svg width="41" height="41" viewBox="0 0 41 41" fill="none" xmlns="http://www.w3.org/2000/svg">
<path d="M29.108 0H23.2828C17.3811 0 11.426 4.35801 11.426 14.0942C11.426 19.1374 13.5634 23.0651 17.4815 25.2989L10.3103 38.2789C9.97029 38.8927 9.9614 39.5885 10.2864 40.1399C10.6038 40.6784 11.1841 41 11.8382 41H15.4658C16.2899 41 16.9324 40.6017 17.2406 39.9039L23.9643 26.7525H24.4551V39.3609C24.4551 40.2494 25.2048 41 26.0923 41H29.2614C30.2566 41 30.9515 40.3051 30.9515 39.31V1.79399C30.9516 0.73776 30.1936 0 29.108 0ZM24.4551 20.9105H23.5894C20.2329 20.9105 18.2292 18.1707 18.2292 13.5815C18.2292 7.8752 20.7604 5.8421 23.1295 5.8421H24.4551V20.9105Z" fill="#797B80"/>
</svg>
